<svg width="197" height="187" viewBox="0 0 197 187" fill="none" xmlns="http://www.w3.org/2000/svg">
<path fill-rule="evenodd" clip-rule="evenodd" d="M76.9072 102.371C78.0784 102.371 79.2497 102.371 80.3924 102.371C80.5638 102.371 80.7352 102.342 80.8495 102.485C80.9638 102.656 80.7924 102.77 80.7067 102.827C78.4212 104.938 77.1071 107.677 75.6216 110.302C74.3932 112.47 72.9362 114.496 71.9078 116.75C71.1079 118.49 70.6508 120.316 71.1365 122.256C71.5364 123.883 72.5077 125.109 73.7647 126.108C75.6787 127.649 77.907 128.39 80.3067 128.219C82.3922 128.077 84.2491 127.164 85.9917 125.937C88.8199 123.94 91.0768 121.401 93.0765 118.605C93.7336 117.692 93.8764 117.634 94.962 117.863C95.9047 118.062 96.876 118.12 97.8473 118.348C100.19 118.918 102.304 119.945 104.332 121.144C107.703 123.112 111.103 125.052 114.502 126.992C118.359 129.218 122.216 131.443 126.072 133.64C128.129 134.81 130.186 135.98 132.214 137.206C134.985 138.89 136.128 141.457 135.728 144.567C135.385 147.249 133.443 149.817 130.272 150.559C129.101 150.844 127.929 150.93 126.758 150.616C126.529 150.559 126.387 150.616 126.358 150.844C126.187 152.27 125.415 153.412 124.558 154.467C123.673 155.551 122.473 156.151 121.13 156.493C119.902 156.835 118.645 156.921 117.416 156.607C116.931 156.493 117.016 156.892 116.959 157.149C116.416 159.004 115.445 160.573 113.788 161.628C111.417 163.083 108.932 163.255 106.418 161.971C106.018 161.771 105.932 161.743 105.789 162.228C104.932 164.995 103.19 166.878 100.304 167.563C97.9902 168.105 95.9047 167.477 93.9621 166.193C93.3622 165.822 93.1337 165.594 93.4479 164.795C95.1334 160.601 93.8193 156.35 90.1055 153.668C89.8198 153.469 89.5056 153.212 89.1913 153.155C88.1629 152.955 87.8772 152.242 87.7058 151.357C87.4772 150.245 86.9345 149.275 86.3345 148.333C86.0203 147.848 85.9917 147.591 85.3918 146.878C84.9061 146.308 84.1919 146.022 83.5063 145.766C82.3636 145.309 81.7351 144.653 81.3637 143.312C80.5353 140.345 78.507 138.233 75.4788 137.349C74.1361 136.95 72.7363 136.55 71.2793 137.035C70.6222 137.263 70.2223 137.064 69.8223 136.379C67.794 132.841 63.7374 131.158 59.7379 132.128C58.3667 132.47 57.1668 133.212 55.967 133.954C54.8814 134.61 54.91 134.61 54.3957 133.469C53.4244 131.358 53.7672 129.389 54.8814 127.449C57.7953 122.428 60.6521 117.378 63.5374 112.356C64.7944 110.188 65.9086 107.934 67.3369 105.851C69.051 103.369 71.5078 102.2 74.5075 102.228C75.3359 102.371 76.1073 102.371 76.9072 102.371Z" fill="#3A4147"/>
<path fill-rule="evenodd" clip-rule="evenodd" d="M107.932 102.371C112.417 102.371 116.874 102.428 121.359 102.343C125.472 102.257 128.329 104.055 130.329 107.592C133.186 112.699 136.185 117.721 139.071 122.799C139.785 124.054 140.585 125.253 141.185 126.594C142.442 129.39 141.585 131.615 139.414 133.327C138.756 133.84 137.957 134.24 137.242 134.696C136.9 134.896 136.614 134.81 136.3 134.639C132.014 132.157 127.729 129.675 123.416 127.221C118.816 124.597 114.188 121.972 109.589 119.347C107.76 118.291 105.961 117.207 104.075 116.237C102.218 115.239 100.219 114.611 98.1331 114.126C96.1048 113.669 94.0765 113.698 92.0481 113.669C91.5053 113.669 91.1911 113.869 90.9054 114.326C89.3342 116.694 87.6201 118.976 85.5061 120.916C84.3634 121.972 83.1064 122.913 81.6209 123.484C80.3068 123.997 78.9355 124.111 77.5928 123.569C75.6788 122.771 74.6218 120.83 75.8216 118.605C77.3071 115.866 78.8212 113.127 80.4496 110.445C81.4209 108.848 82.3636 107.221 83.8206 105.995C85.4204 104.597 87.2487 103.655 89.3056 103.113C91.4196 102.571 93.5622 102.428 95.7334 102.428C99.79 102.371 103.875 102.371 107.932 102.371Z" fill="#3A4147"/>
<path fill-rule="evenodd" clip-rule="evenodd" d="M81.6209 149.561C83.6206 150.987 84.5062 153.298 83.4206 155.866C83.3064 156.123 83.1921 156.38 83.1921 156.693C84.0206 156.551 84.8205 156.38 85.6775 156.494C87.7629 156.722 89.477 158.234 89.9627 160.288C90.4198 162.257 89.5342 164.482 87.8487 165.509C86.506 166.308 85.1919 167.136 83.7635 167.82C80.6781 169.304 76.6215 168.163 74.7646 165.31C74.3932 164.767 74.3075 163.855 73.7362 163.683C73.1934 163.512 72.5078 163.569 71.8507 163.484C69.7367 163.198 68.1369 162.114 66.9656 160.374C66.937 160.317 66.8513 160.26 66.8228 160.203C66.3657 159.004 65.4515 158.776 64.2231 158.633C60.4521 158.205 57.8525 155.181 57.7096 151.444C57.6811 151.101 57.6239 150.816 57.2811 150.616C52.396 147.621 52.4532 140.745 57.5668 137.863C58.481 137.35 59.3666 136.722 60.395 136.351C62.7661 135.467 66.1657 136.465 67.1941 138.805C67.6227 140.317 67.6512 139.832 67.9655 142.286C67.9655 142.343 67.9083 142.428 67.9083 142.485C67.9083 142.514 67.9369 142.514 67.9655 142.571C69.251 142.2 68.8511 142.571 70.1081 141.858C72.0792 140.716 74.279 140.859 75.9645 142.228C77.6214 143.598 78.1356 145.709 77.3928 147.849C77.25 148.22 77.1643 148.619 76.8786 149.047C77.7928 148.79 78.6498 148.676 79.5069 148.762L81.6209 149.561Z" fill="#3A4147"/>
<path fill-rule="evenodd" clip-rule="evenodd" d="M143.356 91.8434L132.557 98.063C131.357 98.7477 130.957 100.26 131.643 101.458L152.212 137.036C152.897 138.234 154.411 138.633 155.611 137.949L166.41 131.729C167.61 131.044 168.01 129.532 167.324 128.334L146.755 92.7564C146.07 91.5866 144.556 91.1587 143.356 91.8434ZM158.525 130.559C157.04 131.415 155.126 130.902 154.269 129.418C153.412 127.934 153.926 126.023 155.411 125.167C156.897 124.311 158.811 124.825 159.668 126.308C160.525 127.792 160.039 129.703 158.525 130.559Z" fill="#3A4147"/>
<path fill-rule="evenodd" clip-rule="evenodd" d="M49.8534 92.7564L29.2846 128.334C28.5989 129.532 28.9989 131.044 30.1987 131.729L40.9974 137.949C42.1972 138.633 43.7113 138.234 44.3969 137.036L64.9658 101.458C65.6514 100.26 65.2514 98.7477 64.0516 98.063L53.253 91.8434C52.0817 91.1587 50.539 91.5866 49.8534 92.7564ZM36.9407 126.308C37.7978 124.825 39.7118 124.311 41.1973 125.167C42.6829 126.023 43.1971 127.934 42.3401 129.418C41.483 130.902 39.569 131.415 38.0835 130.559C36.5979 129.703 36.0837 127.792 36.9407 126.308Z" fill="#3A4147"/>
<path d="M98.3043 18.5205C78.364 18.5205 62.1089 34.4976 62.1089 54.155C62.1089 73.8125 78.3354 89.7896 98.3043 89.7896C118.245 89.7896 134.5 73.8125 134.5 54.155C134.5 34.5261 118.245 18.5205 98.3043 18.5205ZM98.3043 83.9979C81.6207 83.9979 68.051 70.6171 68.051 54.1836C68.051 37.75 81.6207 24.3692 98.3043 24.3692C114.988 24.3692 128.558 37.75 128.558 54.1836C128.558 70.6171 114.988 83.9979 98.3043 83.9979Z" fill="#3A4147"/>
<path d="M112.474 62.3722C112.474 59.4336 111.617 56.98 109.96 55.1255C108.275 53.2425 105.018 51.6733 100.276 50.475L99.9042 50.3895V38.0643L100.59 38.3496C102.561 39.1485 103.875 40.6606 104.418 42.8289L110.846 42.0015C110.303 39.5194 109.16 37.4937 107.475 35.9816C105.589 34.2983 103.304 33.3568 100.333 33.0144L99.8756 32.9574V29.334H96.476V32.9574L96.019 32.9859C92.6765 33.2997 89.9626 34.4695 87.9628 36.4951C85.9631 38.5208 84.9632 41.0315 84.9632 43.9986C84.9632 46.9373 85.8488 49.4765 87.62 51.5307C89.3912 53.6134 92.248 55.1826 96.1047 56.2097L96.476 56.3238V69.4763L95.7619 69.1625C94.5906 68.6489 93.5336 67.793 92.5908 66.6233C91.7338 65.5677 91.1339 64.3123 90.7625 62.9143L84.0776 63.5991C84.7061 66.9656 86.0202 69.619 88.02 71.502C90.1911 73.5562 92.7337 74.6689 95.9904 75.0398L96.4475 75.0968V78.977H99.847V74.9542L100.276 74.8971C104.075 74.3836 107.103 72.9856 109.217 70.7031C111.388 68.5063 112.474 65.6818 112.474 62.3722ZM96.5046 49.3624L95.819 49.0771C94.4192 48.5064 93.3622 47.7361 92.648 46.8231C91.9338 45.8816 91.5624 44.826 91.5624 43.7133C91.5624 42.4865 91.9623 41.3738 92.7337 40.3753C93.505 39.3767 94.5334 38.6634 95.8476 38.264L96.5046 38.0643V49.3624ZM104.504 67.4792C103.475 68.6204 102.132 69.3337 100.504 69.619L99.9042 69.7331V57.3224L100.533 57.4935C102.447 58.0071 103.847 58.7774 104.704 59.776C105.589 60.8031 106.018 62.0013 106.018 63.3993C106.046 64.9685 105.532 66.338 104.504 67.4792Z" fill="#3A4147"/>
</svg>
