<?xml version="1.0" encoding="utf-8"?>
<!-- Generator: Adobe Illustrator 26.0.3, SVG Export Plug-In . SVG Version: 6.00 Build 0)  -->
<svg version="1.1" id="Layer_1" xmlns="http://www.w3.org/2000/svg" xmlns:xlink="http://www.w3.org/1999/xlink" x="0px" y="0px"
	 viewBox="0 0 684 650" style="enable-background:new 0 0 684 650;" xml:space="preserve">
<style type="text/css">
	.st0{fill-rule:evenodd;clip-rule:evenodd;fill:#3A4147;}
	.st1{fill:#3A4147;}
</style>
<g>
	<g>
		<g>
			<path class="st0" d="M267.1,356.1c4.1,0,8.2,0,12.2,0c0.6,0,1.2-0.1,1.6,0.4c0.4,0.6-0.2,1-0.5,1.2c-8,7.4-12.6,17-17.8,26.2
				c-4.3,7.6-9.4,14.7-13,22.6c-2.8,6.1-4.4,12.5-2.7,19.3c1.4,5.7,4.8,10,9.2,13.5c6.7,5.4,14.5,8,22.9,7.4
				c7.3-0.5,13.8-3.7,19.9-8c9.9-7,17.8-15.9,24.8-25.7c2.3-3.2,2.8-3.4,6.6-2.6c3.3,0.7,6.7,0.9,10.1,1.7c8.2,2,15.6,5.6,22.7,9.8
				c11.8,6.9,23.7,13.7,35.6,20.5c13.5,7.8,27,15.6,40.5,23.3c7.2,4.1,14.4,8.2,21.5,12.5c9.7,5.9,13.7,14.9,12.3,25.8
				c-1.2,9.4-8,18.4-19.1,21c-4.1,1-8.2,1.3-12.3,0.2c-0.8-0.2-1.3,0-1.4,0.8c-0.6,5-3.3,9-6.3,12.7c-3.1,3.8-7.3,5.9-12,7.1
				c-4.3,1.2-8.7,1.5-13,0.4c-1.7-0.4-1.4,1-1.6,1.9c-1.9,6.5-5.3,12-11.1,15.7c-8.3,5.1-17,5.7-25.8,1.2c-1.4-0.7-1.7-0.8-2.2,0.9
				c-3,9.7-9.1,16.3-19.2,18.7c-8.1,1.9-15.4-0.3-22.2-4.8c-2.1-1.3-2.9-2.1-1.8-4.9c5.9-14.7,1.3-29.6-11.7-39
				c-1-0.7-2.1-1.6-3.2-1.8c-3.6-0.7-4.6-3.2-5.2-6.3c-0.8-3.9-2.7-7.3-4.8-10.6c-1.1-1.7-1.2-2.6-3.3-5.1c-1.7-2-4.2-3-6.6-3.9
				c-4-1.6-6.2-3.9-7.5-8.6c-2.9-10.4-10-17.8-20.6-20.9c-4.7-1.4-9.6-2.8-14.7-1.1c-2.3,0.8-3.7,0.1-5.1-2.3
				c-7.1-12.4-21.3-18.3-35.3-14.9c-4.8,1.2-9,3.8-13.2,6.4c-3.8,2.3-3.7,2.3-5.5-1.7c-3.4-7.4-2.2-14.3,1.7-21.1
				c10.2-17.6,20.2-35.3,30.3-52.9c4.4-7.6,8.3-15.5,13.3-22.8c6-8.7,14.6-12.8,25.1-12.7C261.6,356.1,264.3,356.1,267.1,356.1z"/>
			<path class="st0" d="M375.7,356.1c15.7,0,31.3,0.2,47-0.1c14.4-0.3,24.4,6,31.4,18.4c10,17.9,20.5,35.5,30.6,53.3
				c2.5,4.4,5.3,8.6,7.4,13.3c4.4,9.8,1.4,17.6-6.2,23.6c-2.3,1.8-5.1,3.2-7.6,4.8c-1.2,0.7-2.2,0.4-3.3-0.2
				c-15-8.7-30-17.4-45.1-26c-16.1-9.2-32.3-18.4-48.4-27.6c-6.4-3.7-12.7-7.5-19.3-10.9c-6.5-3.5-13.5-5.7-20.8-7.4
				c-7.1-1.6-14.2-1.5-21.3-1.6c-1.9,0-3,0.7-4,2.3c-5.5,8.3-11.5,16.3-18.9,23.1c-4,3.7-8.4,7-13.6,9c-4.6,1.8-9.4,2.2-14.1,0.3
				c-6.7-2.8-10.4-9.6-6.2-17.4c5.2-9.6,10.5-19.2,16.2-28.6c3.4-5.6,6.7-11.3,11.8-15.6c5.6-4.9,12-8.2,19.2-10.1
				c7.4-1.9,14.9-2.4,22.5-2.4C347.2,356.1,361.5,356.1,375.7,356.1z"/>
			<path class="st0" d="M283.6,521.5c7,5,10.1,13.1,6.3,22.1c-0.4,0.9-0.8,1.8-0.8,2.9c2.9-0.5,5.7-1.1,8.7-0.7
				c7.3,0.8,13.3,6.1,15,13.3c1.6,6.9-1.5,14.7-7.4,18.3c-4.7,2.8-9.3,5.7-14.3,8.1c-10.8,5.2-25,1.2-31.5-8.8
				c-1.3-1.9-1.6-5.1-3.6-5.7c-1.9-0.6-4.3-0.4-6.6-0.7c-7.4-1-13-4.8-17.1-10.9c-0.1-0.2-0.4-0.4-0.5-0.6c-1.6-4.2-4.8-5-9.1-5.5
				c-13.2-1.5-22.3-12.1-22.8-25.2c-0.1-1.2-0.3-2.2-1.5-2.9c-17.1-10.5-16.9-34.6,1-44.7c3.2-1.8,6.3-4,9.9-5.3
				c8.3-3.1,20.2,0.4,23.8,8.6c1.5,5.3,1.6,3.6,2.7,12.2c0,0.2-0.2,0.5-0.2,0.7c0,0.1,0.1,0.1,0.2,0.3c4.5-1.3,3.1,0,7.5-2.5
				c6.9-4,14.6-3.5,20.5,1.3c5.8,4.8,7.6,12.2,5,19.7c-0.5,1.3-0.8,2.7-1.8,4.2c3.2-0.9,6.2-1.3,9.2-1L283.6,521.5z"/>
			<path class="st0" d="M499.7,319.2l-37.8,21.8c-4.2,2.4-5.6,7.7-3.2,11.9l72,124.7c2.4,4.2,7.7,5.6,11.9,3.2l37.8-21.8
				c4.2-2.4,5.6-7.7,3.2-11.9l-72-124.7C509.2,318.3,503.9,316.8,499.7,319.2z M552.8,454.9c-5.2,3-11.9,1.2-14.9-4
				c-3-5.2-1.2-11.9,4-14.9c5.2-3,11.9-1.2,14.9,4C559.8,445.2,558.1,451.9,552.8,454.9z"/>
			<path class="st0" d="M172.4,322.4l-72,124.7c-2.4,4.2-1,9.5,3.2,11.9l37.8,21.8c4.2,2.4,9.5,1,11.9-3.2l72-124.7
				c2.4-4.2,1-9.5-3.2-11.9l-37.8-21.8C180.2,316.8,174.8,318.3,172.4,322.4z M127.2,440c3-5.2,9.7-7,14.9-4c5.2,3,7,9.7,4,14.9
				c-3,5.2-9.7,7-14.9,4C126,451.9,124.2,445.2,127.2,440z"/>
		</g>
	</g>
	<g>
		<g>
			<path class="st1" d="M342,62.2c-69.8,0-126.7,56-126.7,124.9c0,68.9,56.8,124.9,126.7,124.9c69.8,0,126.7-56,126.7-124.9
				C468.7,118.3,411.8,62.2,342,62.2z M342,291.7c-58.4,0-105.9-46.9-105.9-104.5c0-57.6,47.5-104.5,105.9-104.5
				c58.4,0,105.9,46.9,105.9,104.5C447.9,244.8,400.4,291.7,342,291.7z"/>
		</g>
		<path class="st1" d="M391.6,215.9c0-10.3-3-18.9-8.8-25.4c-5.9-6.6-17.3-12.1-33.9-16.3l-1.3-0.3v-43.2l2.4,1
			c6.9,2.8,11.5,8.1,13.4,15.7l22.5-2.9c-1.9-8.7-5.9-15.8-11.8-21.1c-6.6-5.9-14.6-9.2-25-10.4l-1.6-0.2v-12.7h-11.9v12.7l-1.6,0.1
			c-11.7,1.1-21.2,5.2-28.2,12.3c-7,7.1-10.5,15.9-10.5,26.3c0,10.3,3.1,19.2,9.3,26.4c6.2,7.3,16.2,12.8,29.7,16.4l1.3,0.4v46.1
			l-2.5-1.1c-4.1-1.8-7.8-4.8-11.1-8.9c-3-3.7-5.1-8.1-6.4-13l-23.4,2.4c2.2,11.8,6.8,21.1,13.8,27.7c7.6,7.2,16.5,11.1,27.9,12.4
			l1.6,0.2v13.6h11.9v-14.1l1.5-0.2c13.3-1.8,23.9-6.7,31.3-14.7C387.8,237.4,391.6,227.5,391.6,215.9z M335.7,170.3l-2.4-1
			c-4.9-2-8.6-4.7-11.1-7.9c-2.5-3.3-3.8-7-3.8-10.9c0-4.3,1.4-8.2,4.1-11.7c2.7-3.5,6.3-6,10.9-7.4l2.3-0.7V170.3z M363.7,233.8
			c-3.6,4-8.3,6.5-14,7.5l-2.1,0.4v-43.5l2.2,0.6c6.7,1.8,11.6,4.5,14.6,8c3.1,3.6,4.6,7.8,4.6,12.7
			C369.1,225,367.3,229.8,363.7,233.8z"/>
	</g>
</g>
</svg>
