<svg width="90" height="86" viewBox="0 0 90 86" fill="none" xmlns="http://www.w3.org/2000/svg">
<path d="M40.6457 19.8174C41.5734 19.8174 42.4083 19.8174 43.336 19.8174C44.7276 20.0947 46.1191 20.2796 47.4179 20.6493C59.3852 23.6072 66.8996 35.4388 64.4876 47.4553C62.1683 59.1945 50.5721 67.8834 37.9554 65.3877C28.3073 63.539 22.2772 57.7156 19.6797 48.2873C19.3086 46.9932 19.2158 45.6066 18.9375 44.2201C18.9375 43.3882 18.9375 42.5563 18.9375 41.7244C19.123 40.6152 19.2158 39.4135 19.4941 38.3043C21.6278 29.2457 27.194 23.5148 36.0072 20.8342C37.5843 20.372 39.0686 20.1871 40.6457 19.8174ZM38.3264 43.8504C38.3264 48.2873 38.3264 52.6317 38.3264 56.9761C40.2746 56.9761 42.13 56.9761 44.0782 56.9761C44.0782 52.5392 44.0782 48.1948 44.0782 43.758C45.377 43.758 46.583 43.758 47.789 43.758C47.9745 42.0941 48.0673 40.5227 48.2528 38.8589C46.7685 38.8589 45.4697 38.8589 44.0782 38.8589C44.0782 37.9346 44.0782 37.1027 44.0782 36.3632C44.0782 35.254 44.3565 34.9767 45.4697 34.9767C46.3974 34.9767 47.2324 34.9767 48.1601 34.9767C48.1601 33.4053 48.1601 31.9263 48.1601 30.3549C46.3974 30.3549 44.7276 30.2625 43.0577 30.3549C41.1095 30.5398 39.4397 31.5566 38.8831 33.4977C38.6047 34.4221 38.512 35.4388 38.4192 36.4556C38.3264 37.1951 38.4192 38.027 38.4192 38.8589C37.4915 38.8589 36.7493 38.8589 35.9144 38.8589C35.9144 40.5227 35.9144 42.0941 35.9144 43.6655C36.6566 43.8504 37.3987 43.8504 38.3264 43.8504Z" fill="#EDEAE6"/>
</svg>
