<svg id="Layer_1" data-name="Layer 1" xmlns="http://www.w3.org/2000/svg" width="0.6944in" height="0.6944in" viewBox="0 0 50 50"><defs><style>.cls-1{fill:#edeae6;}</style></defs><path class="cls-1" d="M23.6,0h2.9c1.5.3,3,.5,4.4.9A24.9535,24.9535,0,0,1,49.5,30,24.6775,24.6775,0,0,1,20.7,49.5c-10.5-2-17-8.3-19.9-18.6C.4,29.5.3,28,0,26.5V23.8c.2-1.2.3-2.5.6-3.7C2.9,10.2,9,4,18.6,1.1,20.3.6,21.9.4,23.6,0ZM21.1,26.1V40.4h6.3V26h4c.2-1.8.3-3.5.5-5.3H27.4V18c0-1.2.3-1.5,1.5-1.5h2.9v-5c-1.9,0-3.7-.1-5.5,0a4.8348,4.8348,0,0,0-4.5,3.4,16.4491,16.4491,0,0,0-.5,3.2,22.5334,22.5334,0,0,0,0,2.6H18.6v5.2A9.3652,9.3652,0,0,0,21.1,26.1Z"/></svg>