<svg id="Layer_1" data-name="Layer 1" xmlns="http://www.w3.org/2000/svg" width="50" height="50" viewBox="0 0 50 50"><defs><style>.cls-1{fill:#edeae6;}</style></defs><path class="cls-1" d="M23.3,0h3.5c.1,0,.3.1.4.1a20.99,20.99,0,0,1,5,.9A24.2089,24.2089,0,0,1,45.8,11.1a23.5828,23.5828,0,0,1,3.9,10.2c.1.7.2,1.3.3,2v3.5c0,.1-.1.3-.1.4a29.4123,29.4123,0,0,1-1.2,5.9A24.9041,24.9041,0,0,1,36.9,47,23.18,23.18,0,0,1,28,49.8a5.0194,5.0194,0,0,0-1.2.2H23.3c-.1,0-.3-.1-.4-.1a20.7506,20.7506,0,0,1-5.4-1.1A25.0926,25.0926,0,0,1,4.3,38.9a23.65,23.65,0,0,1-4-10.3c-.1-.7-.2-1.3-.3-2V23.1c0-.1.1-.3.1-.4a23.2959,23.2959,0,0,1,.8-4.6A25.2905,25.2905,0,0,1,11.1,4.3,24.15,24.15,0,0,1,22.1.2C22.5.1,22.9.1,23.3,0Zm1.8,10.6H21.6a19.806,19.806,0,0,0-4.2.3,7.3259,7.3259,0,0,0-6.2,5.9,34.1878,34.1878,0,0,0-.4,4.5v7.3a17.9838,17.9838,0,0,0,.3,4A7.5534,7.5534,0,0,0,17,38.9a29.8633,29.8633,0,0,0,4.3.4h7.8a23.402,23.402,0,0,0,3.8-.3,7.5266,7.5266,0,0,0,5.9-4.7,9.6,9.6,0,0,0,.6-3.3c0-3.2.1-6.5.1-9.7a25.6125,25.6125,0,0,0-.3-3.9,7.2924,7.2924,0,0,0-3.8-5.5,8.5664,8.5664,0,0,0-4.1-1C29.1,10.7,27.1,10.7,25.1,10.6Z"/><path class="cls-1" d="M24.9529,13.278c1.9112,0,3.7219,0,5.6331.1006a7.66,7.66,0,0,1,2.1124.3017,4.7,4.7,0,0,1,3.8224,4.2248,21.8642,21.8642,0,0,1,.2012,3.6213V30.68a9.1371,9.1371,0,0,1-.3017,2.3136,4.8035,4.8035,0,0,1-4.1243,3.923,19.516,19.516,0,0,1-3.42.2012H19.521a8.5741,8.5741,0,0,1-2.3136-.3018,4.7628,4.7628,0,0,1-3.6212-3.6213,8.3771,8.3771,0,0,1-.3018-2.213V19.8164a7.6563,7.6563,0,0,1,.3018-2.1124,4.9159,4.9159,0,0,1,4.2248-3.9231,19.5267,19.5267,0,0,1,3.42-.2011,14.6991,14.6991,0,0,1,3.7218-.3018Zm0,19.2128A7.3936,7.3936,0,1,0,17.61,25.0471,7.342,7.342,0,0,0,24.9529,32.4908Zm9.3549-15.0886a1.71,1.71,0,1,0-1.71,1.71A1.6954,1.6954,0,0,0,34.3078,17.4022Z"/><path class="cls-1" d="M24.9529,29.976a4.7666,4.7666,0,0,1-4.8283-4.8283,4.8284,4.8284,0,1,1,9.6567,0A4.8956,4.8956,0,0,1,24.9529,29.976Z"/></svg>