<svg width="96" height="92" viewBox="0 0 96 92" fill="none" xmlns="http://www.w3.org/2000/svg">
<path d="M45.3216 18.3608C46.3997 18.3608 47.4778 18.3608 48.556 18.3608C48.6728 18.3878 48.7896 18.4237 48.9063 18.4327C50.4786 18.5495 52.0149 18.846 53.5243 19.3042C58.7981 20.9124 62.9759 24.021 66.0755 28.5761C67.9981 31.4151 69.2021 34.5417 69.7052 37.9378C69.795 38.5397 69.8669 39.1417 69.9478 39.7526C69.9478 40.8308 69.9478 41.9089 69.9478 42.987C69.9208 43.1128 69.8849 43.2476 69.8759 43.3733C69.7231 45.2241 69.3548 47.039 68.7349 48.7909C66.7493 54.4331 63.1286 58.7097 57.8997 61.6026C55.3481 63.0132 52.6169 63.8757 49.7149 64.2081C49.3286 64.253 48.9513 64.3159 48.5649 64.3608C47.4868 64.3608 46.4087 64.3608 45.3306 64.3608C45.2138 64.3339 45.097 64.298 44.9802 64.289C43.2911 64.1542 41.638 63.8308 40.0208 63.3097C34.9267 61.6745 30.8747 58.6288 27.8649 54.2265C25.9153 51.3694 24.6845 48.2159 24.1903 44.7929C24.1005 44.1909 24.0286 43.589 23.9478 42.987C23.9478 41.9089 23.9478 40.8308 23.9478 39.7526C23.9747 39.6269 24.0106 39.4921 24.0196 39.3663C24.1364 37.9198 24.397 36.4913 24.8013 35.0987C26.3556 29.7171 29.4642 25.4495 34.0731 22.287C37.1188 20.2026 40.497 18.9538 44.1716 18.5136C44.5579 18.4687 44.9442 18.4147 45.3216 18.3608ZM46.9567 28.1358C46.9567 28.1448 46.9567 28.1628 46.9567 28.1718C45.8786 28.1718 44.8005 28.1538 43.7224 28.1808C42.4196 28.2077 41.1169 28.2167 39.8321 28.4323C36.8763 28.9354 34.756 30.9569 34.0911 33.8948C33.7856 35.2515 33.7856 36.6261 33.7677 38.0007C33.7407 40.2468 33.7407 42.4929 33.7677 44.739C33.7767 45.9788 33.8036 47.2187 34.0103 48.4495C34.5134 51.4144 36.5169 53.5437 39.4458 54.2085C40.7396 54.505 42.0603 54.514 43.372 54.5319C45.7528 54.5679 48.1337 54.5679 50.5146 54.5319C51.6915 54.514 52.8864 54.469 54.0454 54.2714C56.6419 53.8312 58.4927 52.3847 59.472 49.905C59.8583 48.9167 60.029 47.8835 60.038 46.8323C60.0739 43.8495 60.1188 40.8757 60.1009 37.8929C60.0919 36.68 60.029 35.4671 59.8403 34.2722C59.4899 32.0261 58.331 30.2921 56.3095 29.196C55.1325 28.5581 53.8388 28.3065 52.5091 28.2616C50.6673 28.1987 48.8165 28.1718 46.9567 28.1358Z" fill="#EDEAE6"/>
<path d="M46.921 30.4629C48.628 30.4898 50.3351 30.4988 52.0421 30.5527C52.698 30.5707 53.3538 30.6605 53.9917 30.8043C56.0312 31.2715 57.1991 32.6012 57.5315 34.6227C57.7023 35.7098 57.7382 36.8238 57.7472 37.9289C57.7651 40.7141 57.7472 43.4992 57.7112 46.2844C57.7023 46.9852 57.6124 47.6949 57.4597 48.3688C56.9925 50.3992 55.6718 51.5852 53.6503 51.9176C52.6081 52.0883 51.539 52.1242 50.4788 52.1332C47.6218 52.1512 44.7647 52.1332 41.8987 52.0973C41.189 52.0883 40.4612 51.9895 39.7694 51.8188C38.0085 51.3785 36.8765 50.2465 36.4362 48.4766C36.2745 47.8117 36.1757 47.1199 36.1667 46.4371C36.1397 43.0231 36.1397 39.609 36.1667 36.1949C36.1667 35.557 36.2655 34.9102 36.4093 34.2902C36.8765 32.2418 38.2062 31.0469 40.2546 30.7234C41.2788 30.5617 42.339 30.5438 43.3812 30.5078C44.5671 30.4719 45.744 30.4988 46.93 30.4988C46.921 30.4898 46.921 30.4809 46.921 30.4629ZM46.903 48.0813C50.6495 48.0992 53.6683 45.1074 53.6862 41.352C53.7042 37.5965 50.7124 34.5867 46.9569 34.5688C43.2015 34.5508 40.1917 37.5426 40.1737 41.2891C40.1558 45.0445 43.1476 48.0633 46.903 48.0813ZM55.546 34.2813C55.546 33.4188 54.8452 32.718 53.9827 32.718C53.1202 32.718 52.4194 33.4188 52.4194 34.2813C52.4194 35.1527 53.1112 35.8445 53.9827 35.8445C54.8452 35.8356 55.546 35.1438 55.546 34.2813Z" fill="#EDEAE6"/>
<path d="M46.9387 45.7363C44.495 45.7363 42.5184 43.7597 42.5274 41.316C42.5274 38.8722 44.5129 36.9046 46.9567 36.9136C49.3825 36.9226 51.341 38.8902 51.35 41.316C51.35 43.7597 49.3824 45.7363 46.9387 45.7363Z" fill="#EDEAE6"/>
</svg>
