<?xml version="1.0" encoding="utf-8"?>
<!-- Generator: Adobe Illustrator 26.0.3, SVG Export Plug-In . SVG Version: 6.00 Build 0)  -->
<svg version="1.1" id="Layer_1" xmlns="http://www.w3.org/2000/svg" xmlns:xlink="http://www.w3.org/1999/xlink" x="0px" y="0px"
	 viewBox="0 0 96 92" style="enable-background:new 0 0 96 92;" xml:space="preserve">
<style type="text/css">
	.st0{clip-path:url(#SVGID_00000131348187524666832530000008349734737735341447_);}
	.st1{fill:#EDEAE6;}
	.st2{clip-path:url(#SVGID_00000110446139565578779640000016004342597714640555_);}
	.st3{clip-path:url(#SVGID_00000085209089361684213820000015749993519924005035_);}
	.st4{clip-path:url(#SVGID_00000134932045377235747940000002868940232453613748_);}
</style>
<g>
	<defs>
		<rect id="SVGID_00000049213347320884851810000008454487507094106545_" x="25" y="21" width="49.9" height="49.9"/>
	</defs>
	<clipPath id="SVGID_00000103229701366790913550000006303479762727472535_">
		<use xlink:href="#SVGID_00000049213347320884851810000008454487507094106545_"  style="overflow:visible;"/>
	</clipPath>
	<g style="clip-path:url(#SVGID_00000103229701366790913550000006303479762727472535_);">
		<path class="st1" d="M25.2,47.7c0-0.9,0-1.8,0-2.7c0.1-0.8,0.3-1.7,0.4-2.5c1-6.2,3.8-11.3,8.7-15.2c5.5-4.4,11.8-6.4,18.9-5.5
			c4.8,0.6,9.2,2.4,12.8,5.6c7.2,6.4,10.2,14.4,8.3,23.9c-2.1,9.9-8.3,16.2-18,19.1c-1.2,0.3-2.4,0.5-3.6,0.8c-1.7,0-3.5,0-5.2,0
			c-0.6-0.1-1.2-0.3-1.7-0.4C35.4,68.6,28.8,62.4,26,52.2C25.6,50.7,25.5,49.2,25.2,47.7z M51.8,59.5c0-0.4,0-0.8,0-1.1
			c0-2.8,0-5.6,0-8.4c0-2.7,2.1-4.3,4.3-3.4c1.3,0.6,1.6,1.8,1.6,3c0,2.9,0,5.9,0,8.8c0,0.3,0,0.7,0,1c1.9,0,3.6,0,5.3,0
			c0-4.2,0.2-8.4,0-12.5c-0.3-4.6-3.7-5.9-7.6-5.3c-1.6,0.2-2.7,1.2-3.8,2.6c0-0.9,0-1.6,0-2.2c-1.8,0-3.5,0-5.3,0
			c0,5.9,0,11.7,0,17.5C48.1,59.5,49.9,59.5,51.8,59.5z M42.8,59.5c0-5.9,0-11.7,0-17.5c-1.8,0-3.6,0-5.3,0c0,5.9,0,11.7,0,17.5
			C39.2,59.5,41,59.5,42.8,59.5z M37,36.4c-0.2,1.5,1.2,3.2,3.1,3.2c1.7,0,3.1-1.4,3.2-3.1c0.1-1.6-1-3.2-3.2-3.3
			C38.4,33.2,37,34.6,37,36.4z"/>
	</g>
</g>
</svg>
