<svg id="Layer_1" data-name="Layer 1" xmlns="http://www.w3.org/2000/svg" width="50" height="50" viewBox="0 0 50 50"><defs><style>.cls-1{fill:#edeae6;}</style></defs><path class="cls-1" d="M-.0274,26.3014v-2.703c.1-.8008.3-1.7018.4-2.5027A23.3959,23.3959,0,0,1,9.1827,5.779,24.239,24.239,0,0,1,28.2035.273,23.59,23.59,0,0,1,41.1176,5.8791c7.2078,6.5071,10.3112,14.5158,8.4092,24.1263-2.1023,10.011-8.4092,16.3179-18.12,19.221-1.2013.3-2.4027.5006-3.604.8009H22.5973c-.6006-.1-1.2013-.3-1.7018-.4C10.2839,47.4245,3.5766,41.1176.7735,30.9064.3731,29.3047.273,27.803-.0274,26.3014ZM26.8,38.2V28.6c0-2.7,2.1-4.3,4.3-3.4a2.963,2.963,0,0,1,1.6,3v9.9H38c0-4.2.2-8.5,0-12.6-.3-4.6-3.7-5.9-7.7-5.3-1.6.2-2.7,1.2-3.8,2.6V20.6H21.2V38.2Zm-9.1,0V20.6H12.4V38.2ZM11.9,14.9A3.0638,3.0638,0,0,0,15,18.1,3.2722,3.2722,0,0,0,18.2,15,3.1056,3.1056,0,0,0,15,11.7,3.1382,3.1382,0,0,0,11.9,14.9Z"/></svg>