<svg width="196" height="187" viewBox="0 0 196 187" fill="none" xmlns="http://www.w3.org/2000/svg">
<path fill-rule="evenodd" clip-rule="evenodd" d="M56.2138 101.687C57.3851 101.687 58.5564 101.687 59.6991 101.687C59.8705 101.687 60.0419 101.659 60.1562 101.801C60.2704 101.972 60.099 102.087 60.0133 102.144C57.7279 104.255 56.4138 106.994 54.9283 109.619C53.6998 111.787 52.2429 113.813 51.2144 116.066C50.4145 117.807 49.9575 119.633 50.4431 121.573C50.8431 123.199 51.8144 124.426 53.0713 125.424C54.9854 126.965 57.2137 127.707 59.6134 127.536C61.6988 127.393 63.5557 126.48 65.2984 125.253C68.1266 123.256 70.3834 120.717 72.3832 117.921C73.0402 117.008 73.1831 116.951 74.2687 117.179C75.2114 117.379 76.1827 117.436 77.154 117.664C79.4966 118.235 81.6106 119.262 83.6389 120.46C87.0099 122.429 90.4095 124.369 93.809 126.309C97.6657 128.534 101.522 130.76 105.379 132.956C107.436 134.126 109.493 135.296 111.521 136.523C114.292 138.206 115.435 140.774 115.035 143.884C114.692 146.565 112.75 149.133 109.578 149.875C108.407 150.16 107.236 150.246 106.065 149.932C105.836 149.875 105.693 149.932 105.665 150.16C105.493 151.587 104.722 152.728 103.865 153.784C102.979 154.868 101.779 155.467 100.437 155.809C99.2084 156.152 97.9514 156.237 96.723 155.923C96.2373 155.809 96.323 156.209 96.2659 156.466C95.7231 158.32 94.7518 159.889 93.0948 160.945C90.7237 162.4 88.2383 162.571 85.7244 161.287C85.3244 161.087 85.2387 161.059 85.0959 161.544C84.2388 164.311 82.4962 166.194 79.6108 166.879C77.2968 167.421 75.2114 166.794 73.2688 165.51C72.6689 165.139 72.4403 164.911 72.7546 164.112C74.4401 159.918 73.126 155.667 69.4121 152.985C69.1265 152.785 68.8122 152.528 68.498 152.471C67.4695 152.272 67.1838 151.558 67.0124 150.674C66.7839 149.561 66.2411 148.591 65.6412 147.65C65.3269 147.165 65.2984 146.908 64.6984 146.195C64.2128 145.624 63.4986 145.339 62.813 145.082C61.6703 144.625 61.0418 143.969 60.6704 142.628C59.8419 139.661 57.8136 137.55 54.7854 136.665C53.4427 136.266 52.0429 135.867 50.5859 136.352C49.9289 136.58 49.5289 136.38 49.129 135.695C47.1007 132.158 43.044 130.474 39.0446 131.444C37.6733 131.787 36.4735 132.528 35.2736 133.27C34.188 133.926 34.2166 133.926 33.7024 132.785C32.7311 130.674 33.0739 128.705 34.188 126.765C37.1019 121.744 39.9587 116.694 42.8441 111.673C44.1011 109.504 45.2152 107.251 46.6436 105.168C48.3577 102.686 50.8145 101.516 53.8141 101.544C54.6426 101.687 55.4425 101.687 56.2138 101.687Z" fill="#3A4147"/>
<path fill-rule="evenodd" clip-rule="evenodd" d="M87.2663 101.687C91.7515 101.687 96.208 101.744 100.693 101.658C104.807 101.573 107.664 103.37 109.663 106.908C112.52 112.015 115.52 117.036 118.405 122.114C119.119 123.37 119.919 124.568 120.519 125.909C121.776 128.705 120.919 130.93 118.748 132.642C118.091 133.156 117.291 133.555 116.577 134.012C116.234 134.211 115.948 134.126 115.634 133.955C111.349 131.472 107.064 128.99 102.75 126.537C98.1506 123.912 93.5227 121.287 88.9232 118.662C87.0949 117.607 85.2951 116.523 83.4097 115.553C81.5527 114.554 79.553 113.926 77.4675 113.441C75.4392 112.985 73.4109 113.013 71.3826 112.985C70.8398 112.985 70.5256 113.184 70.2399 113.641C68.6687 116.009 66.9546 118.291 64.8406 120.231C63.6979 121.287 62.4409 122.229 60.9554 122.799C59.6412 123.313 58.27 123.427 56.9273 122.885C55.0133 122.086 53.9562 120.146 55.1561 117.921C56.6416 115.182 58.1557 112.443 59.7841 109.761C60.7554 108.163 61.6981 106.537 63.1551 105.31C64.7549 103.912 66.5832 102.971 68.6401 102.429C70.7541 101.886 72.8967 101.744 75.0679 101.744C79.1245 101.687 83.1811 101.687 87.2663 101.687Z" fill="#3A4147"/>
<path fill-rule="evenodd" clip-rule="evenodd" d="M60.927 148.876C62.9268 150.303 63.8124 152.614 62.7268 155.181C62.6125 155.438 62.4983 155.695 62.4983 156.009C63.3267 155.866 64.1266 155.695 64.9837 155.809C67.0691 156.037 68.7832 157.549 69.2688 159.604C69.7259 161.572 68.8403 163.798 67.1548 164.825C65.8121 165.624 64.498 166.451 63.0696 167.136C59.9843 168.619 55.9277 167.478 54.0708 164.625C53.6994 164.083 53.6137 163.17 53.0423 162.999C52.4995 162.828 51.8139 162.885 51.1569 162.799C49.0428 162.514 47.443 161.43 46.2718 159.689C46.2432 159.632 46.1575 159.575 46.1289 159.518C45.6718 158.32 44.7577 158.092 43.5293 157.949C39.7583 157.521 37.1586 154.497 37.0158 150.759C36.9872 150.417 36.9301 150.132 36.5873 149.932C31.7022 146.936 31.7593 140.06 36.873 137.179C37.7871 136.665 38.6727 136.038 39.7012 135.667C42.0723 134.782 45.4719 135.781 46.5003 138.12C46.9288 139.632 46.9574 139.147 47.2716 141.601C47.2716 141.658 47.2145 141.744 47.2145 141.801C47.2145 141.829 47.2431 141.829 47.2716 141.886C48.5572 141.515 48.1572 141.886 49.4142 141.173C51.3854 140.032 53.5851 140.174 55.2706 141.544C56.9276 142.913 57.4418 145.025 56.699 147.164C56.5562 147.535 56.4705 147.935 56.1848 148.363C57.099 148.106 57.956 147.992 58.813 148.077L60.927 148.876Z" fill="#3A4147"/>
<path fill-rule="evenodd" clip-rule="evenodd" d="M122.691 91.1875L111.892 97.4071C110.692 98.0918 110.292 99.6039 110.978 100.802L131.547 136.38C132.232 137.578 133.746 137.977 134.946 137.293L145.745 131.073C146.945 130.388 147.345 128.876 146.659 127.678L126.09 92.1004C125.405 90.9022 123.891 90.5027 122.691 91.1875ZM137.86 129.875C136.375 130.731 134.461 130.217 133.604 128.734C132.747 127.25 133.261 125.338 134.746 124.482C136.232 123.627 138.146 124.14 139.003 125.624C139.86 127.107 139.346 129.019 137.86 129.875Z" fill="#3A4147"/>
<path fill-rule="evenodd" clip-rule="evenodd" d="M29.1884 92.1004L8.61954 127.678C7.93391 128.876 8.33386 130.388 9.53371 131.073L20.3323 137.293C21.5322 137.977 23.0463 137.578 23.7319 136.38L44.3007 100.802C44.9864 99.6039 44.5864 98.0918 43.3866 97.4071L32.5879 91.1875C31.3881 90.5027 29.874 90.9022 29.1884 92.1004ZM16.2757 125.624C17.1327 124.14 19.0468 123.627 20.5323 124.482C22.0178 125.338 22.5321 127.25 21.675 128.734C20.818 130.217 18.9039 130.731 17.4184 129.875C15.9329 129.019 15.4187 127.107 16.2757 125.624Z" fill="#3A4147"/>
<path d="M96.4085 88.5625C98.2654 88.5625 99.7795 88.5625 101.408 88.5625C101.408 89.3899 101.408 90.0461 101.408 90.8735C85.1242 90.8735 68.7834 90.8735 52.2998 90.8735C52.2998 90.2173 52.2998 89.4755 52.2998 88.534C54.3853 88.534 56.5278 88.534 58.7847 88.534C58.7847 69.2759 58.7847 50.2176 58.7847 31.0166C71.3545 31.0166 83.7815 31.0166 96.4371 31.0166C96.4085 50.0749 96.4085 69.1903 96.4085 88.5625ZM70.6689 81.8864C70.6689 84.1688 70.6689 86.2801 70.6689 88.3913C74.8684 88.3913 78.925 88.3913 82.9245 88.3913C82.9245 86.1374 82.9245 84.0262 82.9245 81.8864C78.7822 81.8864 74.8112 81.8864 70.6689 81.8864ZM62.27 35.9809C62.27 37.7213 62.27 39.2334 62.27 40.774C63.9269 40.774 65.4696 40.774 67.0408 40.774C67.0408 39.0907 67.0408 37.5501 67.0408 35.9809C65.3839 35.9809 63.8983 35.9809 62.27 35.9809ZM75.4683 40.8311C75.4683 39.0907 75.4683 37.6071 75.4683 36.0094C73.8114 36.0094 72.2687 36.0094 70.6975 36.0094C70.6975 37.6927 70.6975 39.2334 70.6975 40.8311C72.3258 40.8311 73.8114 40.8311 75.4683 40.8311ZM79.8106 40.7455C81.5532 40.7455 83.1245 40.7455 84.6386 40.7455C84.6386 39.0907 84.6386 37.5786 84.6386 36.0094C82.9816 36.0094 81.439 36.0094 79.8106 36.0094C79.8106 37.6357 79.8106 39.1478 79.8106 40.7455ZM88.2667 35.9809C88.2667 37.7498 88.2667 39.319 88.2667 40.8025C89.9522 40.8025 91.4377 40.8025 92.9804 40.8025C92.9804 39.1478 92.9804 37.5786 92.9804 35.9809C91.352 35.9809 89.8665 35.9809 88.2667 35.9809ZM62.27 49.9893C64.0126 49.9893 65.5267 49.9893 67.0694 49.9893C67.0694 48.3346 67.0694 46.7654 67.0694 45.2533C65.3839 45.2533 63.8412 45.2533 62.27 45.2533C62.27 46.8795 62.27 48.3916 62.27 49.9893ZM70.6403 49.9893C72.383 49.9893 73.8971 49.9893 75.4397 49.9893C75.4397 48.3346 75.4397 46.7654 75.4397 45.2533C73.7542 45.2533 72.2116 45.2533 70.6403 45.2533C70.6403 46.8795 70.6403 48.3916 70.6403 49.9893ZM84.6671 45.2248C82.9245 45.2248 81.3818 45.2248 79.8963 45.2248C79.8963 46.9366 79.8963 48.4772 79.8963 49.9608C81.5818 49.9608 83.0673 49.9608 84.6671 49.9608C84.6671 48.3631 84.6671 46.8795 84.6671 45.2248ZM88.2095 45.1677C88.2095 46.9081 88.2095 48.3916 88.2095 49.9893C89.8665 49.9893 91.4091 49.9893 92.9804 49.9893C92.9804 48.3061 92.9804 46.7654 92.9804 45.1677C91.352 45.1677 89.8379 45.1677 88.2095 45.1677ZM62.2985 54.383C62.2985 56.1234 62.2985 57.6355 62.2985 59.1762C63.9555 59.1762 65.5267 59.1762 67.0408 59.1762C67.0408 57.4929 67.0408 55.9522 67.0408 54.383C65.3839 54.383 63.8698 54.383 62.2985 54.383ZM70.6118 59.1191C72.3544 59.1191 73.9256 59.1191 75.4397 59.1191C75.4397 57.4643 75.4397 55.9522 75.4397 54.383C73.7828 54.383 72.2401 54.383 70.6118 54.383C70.6118 56.0093 70.6118 57.5214 70.6118 59.1191ZM79.8392 59.1762C81.5818 59.1762 83.0959 59.1762 84.6386 59.1762C84.6386 57.5214 84.6386 55.9807 84.6386 54.4116C82.9531 54.4116 81.4104 54.4116 79.8392 54.4116C79.8392 56.0663 79.8392 57.5784 79.8392 59.1762ZM93.0089 59.2047C93.0089 57.4643 93.0089 55.9522 93.0089 54.4116C91.352 54.4116 89.7808 54.4116 88.2667 54.4116C88.2667 56.0949 88.2667 57.6355 88.2667 59.2047C89.9236 59.2047 91.4091 59.2047 93.0089 59.2047ZM62.27 67.5356C63.9269 67.5356 65.4696 67.5356 67.0408 67.5356C67.0408 65.8523 67.0408 64.3116 67.0408 62.7995C65.3553 62.7995 63.7841 62.7995 62.27 62.7995C62.27 64.4543 62.27 65.9379 62.27 67.5356ZM70.6689 62.7139C70.6689 64.4258 70.6689 65.9664 70.6689 67.4785C72.3544 67.4785 73.9256 67.4785 75.4397 67.4785C75.4397 65.8237 75.4397 64.3116 75.4397 62.7139C73.8399 62.7139 72.3544 62.7139 70.6689 62.7139ZM84.6386 67.5641C84.6386 65.8238 84.6386 64.3116 84.6386 62.771C82.9816 62.771 81.439 62.771 79.8677 62.771C79.8677 64.4543 79.8677 65.9949 79.8677 67.5641C81.5247 67.5641 83.0388 67.5641 84.6386 67.5641ZM93.0089 67.5356C93.0089 65.7952 93.0089 64.2831 93.0089 62.7425C91.352 62.7425 89.7808 62.7425 88.2667 62.7425C88.2667 64.4258 88.2667 65.9664 88.2667 67.5356C89.9236 67.5356 91.4091 67.5356 93.0089 67.5356ZM62.2985 71.9293C62.2985 73.6696 62.2985 75.1817 62.2985 76.7224C63.9555 76.7224 65.5267 76.7224 67.0408 76.7224C67.0408 75.0391 67.0408 73.4984 67.0408 71.9293C65.3839 71.9293 63.8698 71.9293 62.2985 71.9293ZM70.6118 76.6939C72.3544 76.6939 73.8971 76.6939 75.3826 76.6939C75.3826 74.982 75.3826 73.4414 75.3826 71.9578C73.6971 71.9578 72.2116 71.9578 70.6118 71.9578C70.6118 73.5555 70.6118 75.0391 70.6118 76.6939ZM84.5814 76.808C84.5814 75.1817 84.5814 73.584 84.5814 71.9863C82.9531 71.9863 81.4104 71.9863 79.8963 71.9863C79.8963 73.6696 79.8963 75.2388 79.8963 76.808C81.4961 76.808 82.9531 76.808 84.5814 76.808ZM93.0089 76.7509C93.0089 75.0105 93.0089 73.4984 93.0089 71.9578C91.352 71.9578 89.7808 71.9578 88.2667 71.9578C88.2667 73.6411 88.2667 75.1817 88.2667 76.7509C89.9236 76.7509 91.4091 76.7509 93.0089 76.7509Z" fill="#3A4147"/>
<path d="M92.98 29.9612C82.4099 29.9612 72.0112 29.9612 61.4697 29.9612C61.4697 28.9341 61.4697 27.9926 61.4697 26.8799C71.897 26.8799 82.3528 26.8799 92.98 26.8799C92.98 27.7929 92.98 28.7914 92.98 29.9612Z" fill="#3A4147"/>
<path d="M68.1553 22.6289C74.1831 22.6289 80.1538 22.6289 86.2673 22.6289C86.2673 23.5989 86.2673 24.5975 86.2673 25.7387C80.2966 25.7387 74.2974 25.7387 68.1553 25.7387C68.1553 24.7116 68.1553 23.7131 68.1553 22.6289Z" fill="#3A4147"/>
<path d="M52.8996 84.3976C53.7566 84.3976 54.4708 84.3976 55.2136 84.3976C55.2136 84.7685 55.2136 85.0823 55.2136 85.4532C47.7002 85.4532 40.1869 85.4532 32.5879 85.4532C32.5879 85.1394 32.5879 84.8255 32.5879 84.369C33.5592 84.369 34.5305 84.369 35.5875 84.369C35.5875 75.4961 35.5875 66.7087 35.5875 57.8643C41.3868 57.8643 47.1003 57.8643 52.9282 57.8643C52.8996 66.6516 52.8996 75.4675 52.8996 84.3976ZM41.044 81.3163C41.044 82.3719 41.044 83.3419 41.044 84.312C42.9866 84.312 44.8435 84.312 46.6718 84.312C46.6718 83.2564 46.6718 82.2863 46.6718 81.3163C44.7863 81.3163 42.958 81.3163 41.044 81.3163ZM37.1873 60.1752C37.1873 60.9741 37.1873 61.6588 37.1873 62.3721C37.9586 62.3721 38.6728 62.3721 39.387 62.3721C39.387 61.6017 39.387 60.8885 39.387 60.1752C38.6157 60.1752 37.9301 60.1752 37.1873 60.1752ZM43.2437 62.4006C43.2437 61.6017 43.2437 60.917 43.2437 60.1752C42.4723 60.1752 41.7581 60.1752 41.044 60.1752C41.044 60.9455 41.044 61.6588 41.044 62.4006C41.7867 62.4006 42.5009 62.4006 43.2437 62.4006ZM45.272 62.3721C46.0719 62.3721 46.7861 62.3721 47.5003 62.3721C47.5003 61.6017 47.5003 60.917 47.5003 60.2038C46.7289 60.2038 46.0147 60.2038 45.272 60.2038C45.272 60.917 45.272 61.6303 45.272 62.3721ZM49.1572 60.1467C49.1572 60.9741 49.1572 61.6873 49.1572 62.3721C49.9285 62.3721 50.6142 62.3721 51.3284 62.3721C51.3284 61.6017 51.3284 60.8885 51.3284 60.1467C50.5856 60.1467 49.9 60.1467 49.1572 60.1467ZM37.1587 66.6231C37.9586 66.6231 38.6443 66.6231 39.3585 66.6231C39.3585 65.8528 39.3585 65.1395 39.3585 64.4263C38.5871 64.4263 37.8729 64.4263 37.1587 64.4263C37.1587 65.1966 37.1587 65.8813 37.1587 66.6231ZM41.0154 66.6231C41.8153 66.6231 42.5009 66.6231 43.2151 66.6231C43.2151 65.8528 43.2151 65.1395 43.2151 64.4263C42.4438 64.4263 41.7296 64.4263 41.0154 64.4263C41.0154 65.1966 41.0154 65.8813 41.0154 66.6231ZM47.5003 64.4263C46.7004 64.4263 45.9862 64.4263 45.3006 64.4263C45.3006 65.2251 45.3006 65.9384 45.3006 66.6231C46.0719 66.6231 46.7575 66.6231 47.5003 66.6231C47.5003 65.8813 47.5003 65.1966 47.5003 64.4263ZM49.1286 64.3977C49.1286 65.1966 49.1286 65.8813 49.1286 66.6231C49.9 66.6231 50.6142 66.6231 51.3284 66.6231C51.3284 65.8528 51.3284 65.1395 51.3284 64.3977C50.5856 64.3977 49.8714 64.3977 49.1286 64.3977ZM37.1873 68.6488C37.1873 69.4476 37.1873 70.1324 37.1873 70.8456C37.9586 70.8456 38.6728 70.8456 39.387 70.8456C39.387 70.0753 39.387 69.362 39.387 68.6488C38.6157 68.6488 37.9015 68.6488 37.1873 68.6488ZM41.0154 70.8456C41.8153 70.8456 42.5295 70.8456 43.2437 70.8456C43.2437 70.0753 43.2437 69.3906 43.2437 68.6773C42.4723 68.6773 41.7581 68.6773 41.0154 68.6773C41.0154 69.3906 41.0154 70.1038 41.0154 70.8456ZM45.272 70.8456C46.0719 70.8456 46.7575 70.8456 47.4717 70.8456C47.4717 70.0753 47.4717 69.362 47.4717 68.6488C46.7004 68.6488 45.9862 68.6488 45.272 68.6488C45.272 69.4191 45.272 70.1038 45.272 70.8456ZM51.3284 70.8741C51.3284 70.0753 51.3284 69.3906 51.3284 68.6773C50.557 68.6773 49.8428 68.6773 49.1286 68.6773C49.1286 69.4476 49.1286 70.1609 49.1286 70.8741C49.9 70.8741 50.6142 70.8741 51.3284 70.8741ZM37.1587 74.6972C37.9301 74.6972 38.6443 74.6972 39.3585 74.6972C39.3585 73.9269 39.3585 73.2136 39.3585 72.5004C38.5871 72.5004 37.8729 72.5004 37.1587 72.5004C37.1587 73.2707 37.1587 73.984 37.1587 74.6972ZM41.044 72.5004C41.044 73.2992 41.044 74.0125 41.044 74.6972C41.8153 74.6972 42.5295 74.6972 43.2437 74.6972C43.2437 73.9269 43.2437 73.2422 43.2437 72.5004C42.5009 72.5004 41.8153 72.5004 41.044 72.5004ZM47.4717 74.7258C47.4717 73.9269 47.4717 73.2422 47.4717 72.5289C46.7004 72.5289 45.9862 72.5289 45.272 72.5289C45.272 73.2992 45.272 74.0125 45.272 74.7258C46.0433 74.7258 46.7289 74.7258 47.4717 74.7258ZM51.3284 74.7258C51.3284 73.9269 51.3284 73.2422 51.3284 72.5289C50.557 72.5289 49.8428 72.5289 49.1286 72.5289C49.1286 73.2992 49.1286 74.0125 49.1286 74.7258C49.9 74.7258 50.6142 74.7258 51.3284 74.7258ZM37.1873 76.7229C37.1873 77.5217 37.1873 78.2065 37.1873 78.9197C37.9586 78.9197 38.6728 78.9197 39.387 78.9197C39.387 78.1494 39.387 77.4362 39.387 76.7229C38.6157 76.7229 37.9015 76.7229 37.1873 76.7229ZM41.0154 78.9197C41.8153 78.9197 42.5295 78.9197 43.2151 78.9197C43.2151 78.1209 43.2151 77.4076 43.2151 76.7229C42.4438 76.7229 41.7581 76.7229 41.0154 76.7229C41.0154 77.4647 41.0154 78.1779 41.0154 78.9197ZM47.4431 78.9768C47.4431 78.235 47.4431 77.4932 47.4431 76.7514C46.7004 76.7514 45.9862 76.7514 45.272 76.7514C45.272 77.5217 45.272 78.235 45.272 78.9768C46.0433 78.9768 46.7004 78.9768 47.4431 78.9768ZM51.3284 78.9483C51.3284 78.1494 51.3284 77.4647 51.3284 76.7514C50.557 76.7514 49.8428 76.7514 49.1286 76.7514C49.1286 77.5217 49.1286 78.235 49.1286 78.9483C49.9 78.9483 50.6142 78.9483 51.3284 78.9483Z" fill="#3A4147"/>
<path d="M51.3279 57.3796C46.4713 57.3796 41.672 57.3796 36.8154 57.3796C36.8154 56.8946 36.8154 56.4667 36.8154 55.9531C41.6148 55.9531 46.4428 55.9531 51.3279 55.9531C51.3279 56.3811 51.3279 56.8376 51.3279 57.3796Z" fill="#3A4147"/>
<path d="M39.873 54.0127C42.6441 54.0127 45.4152 54.0127 48.2148 54.0127C48.2148 54.4692 48.2148 54.9257 48.2148 55.4392C45.4723 55.4392 42.7013 55.4392 39.873 55.4392C39.873 54.9827 39.873 54.5262 39.873 54.0127Z" fill="#3A4147"/>
<path d="M120.606 84.3976C121.463 84.3976 122.177 84.3976 122.92 84.3976C122.92 84.7685 122.92 85.0823 122.92 85.4532C115.406 85.4532 107.893 85.4532 100.294 85.4532C100.294 85.1394 100.294 84.8255 100.294 84.369C101.265 84.369 102.237 84.369 103.294 84.369C103.294 75.4961 103.294 66.7087 103.294 57.8643C109.093 57.8643 114.806 57.8643 120.634 57.8643C120.606 66.6516 120.606 75.4675 120.606 84.3976ZM108.75 81.3163C108.75 82.3719 108.75 83.3419 108.75 84.312C110.693 84.312 112.55 84.312 114.378 84.312C114.378 83.2564 114.378 82.2863 114.378 81.3163C112.492 81.3163 110.664 81.3163 108.75 81.3163ZM104.893 60.1752C104.893 60.9741 104.893 61.6588 104.893 62.3721C105.665 62.3721 106.379 62.3721 107.093 62.3721C107.093 61.6017 107.093 60.8885 107.093 60.1752C106.322 60.1752 105.636 60.1752 104.893 60.1752ZM110.95 62.4006C110.95 61.6017 110.95 60.917 110.95 60.1752C110.178 60.1752 109.464 60.1752 108.75 60.1752C108.75 60.9455 108.75 61.6588 108.75 62.4006C109.493 62.4006 110.207 62.4006 110.95 62.4006ZM112.978 62.3721C113.778 62.3721 114.492 62.3721 115.206 62.3721C115.206 61.6017 115.206 60.917 115.206 60.2038C114.435 60.2038 113.721 60.2038 112.978 60.2038C112.978 60.917 112.978 61.6303 112.978 62.3721ZM116.863 60.1467C116.863 60.9741 116.863 61.6873 116.863 62.3721C117.635 62.3721 118.32 62.3721 119.034 62.3721C119.034 61.6017 119.034 60.8885 119.034 60.1467C118.292 60.1467 117.606 60.1467 116.863 60.1467ZM104.865 66.6231C105.665 66.6231 106.35 66.6231 107.065 66.6231C107.065 65.8528 107.065 65.1395 107.065 64.4263C106.293 64.4263 105.579 64.4263 104.865 64.4263C104.865 65.1966 104.865 65.8813 104.865 66.6231ZM108.721 66.6231C109.521 66.6231 110.207 66.6231 110.921 66.6231C110.921 65.8528 110.921 65.1395 110.921 64.4263C110.15 64.4263 109.436 64.4263 108.721 64.4263C108.721 65.1966 108.721 65.8813 108.721 66.6231ZM115.206 64.4263C114.406 64.4263 113.692 64.4263 113.007 64.4263C113.007 65.2251 113.007 65.9384 113.007 66.6231C113.778 66.6231 114.464 66.6231 115.206 66.6231C115.206 65.8813 115.206 65.1966 115.206 64.4263ZM116.835 64.3977C116.835 65.1966 116.835 65.8813 116.835 66.6231C117.606 66.6231 118.32 66.6231 119.034 66.6231C119.034 65.8528 119.034 65.1395 119.034 64.3977C118.292 64.3977 117.577 64.3977 116.835 64.3977ZM104.893 68.6488C104.893 69.4476 104.893 70.1324 104.893 70.8456C105.665 70.8456 106.379 70.8456 107.093 70.8456C107.093 70.0753 107.093 69.362 107.093 68.6488C106.322 68.6488 105.608 68.6488 104.893 68.6488ZM108.721 70.8456C109.521 70.8456 110.236 70.8456 110.95 70.8456C110.95 70.0753 110.95 69.3906 110.95 68.6773C110.178 68.6773 109.464 68.6773 108.721 68.6773C108.721 69.3906 108.721 70.1038 108.721 70.8456ZM112.978 70.8456C113.778 70.8456 114.464 70.8456 115.178 70.8456C115.178 70.0753 115.178 69.362 115.178 68.6488C114.406 68.6488 113.692 68.6488 112.978 68.6488C112.978 69.4191 112.978 70.1038 112.978 70.8456ZM119.034 70.8741C119.034 70.0753 119.034 69.3906 119.034 68.6773C118.263 68.6773 117.549 68.6773 116.835 68.6773C116.835 69.4476 116.835 70.1609 116.835 70.8741C117.606 70.8741 118.32 70.8741 119.034 70.8741ZM104.865 74.6972C105.636 74.6972 106.35 74.6972 107.065 74.6972C107.065 73.9269 107.065 73.2136 107.065 72.5004C106.293 72.5004 105.579 72.5004 104.865 72.5004C104.865 73.2707 104.865 73.984 104.865 74.6972ZM108.75 72.5004C108.75 73.2992 108.75 74.0125 108.75 74.6972C109.521 74.6972 110.236 74.6972 110.95 74.6972C110.95 73.9269 110.95 73.2422 110.95 72.5004C110.207 72.5004 109.521 72.5004 108.75 72.5004ZM115.178 74.7258C115.178 73.9269 115.178 73.2422 115.178 72.5289C114.406 72.5289 113.692 72.5289 112.978 72.5289C112.978 73.2992 112.978 74.0125 112.978 74.7258C113.749 74.7258 114.435 74.7258 115.178 74.7258ZM119.034 74.7258C119.034 73.9269 119.034 73.2422 119.034 72.5289C118.263 72.5289 117.549 72.5289 116.835 72.5289C116.835 73.2992 116.835 74.0125 116.835 74.7258C117.606 74.7258 118.32 74.7258 119.034 74.7258ZM104.893 76.7229C104.893 77.5217 104.893 78.2065 104.893 78.9197C105.665 78.9197 106.379 78.9197 107.093 78.9197C107.093 78.1494 107.093 77.4362 107.093 76.7229C106.322 76.7229 105.608 76.7229 104.893 76.7229ZM108.721 78.9197C109.521 78.9197 110.236 78.9197 110.921 78.9197C110.921 78.1209 110.921 77.4076 110.921 76.7229C110.15 76.7229 109.464 76.7229 108.721 76.7229C108.721 77.4647 108.721 78.1779 108.721 78.9197ZM115.149 78.9768C115.149 78.235 115.149 77.4932 115.149 76.7514C114.406 76.7514 113.692 76.7514 112.978 76.7514C112.978 77.5217 112.978 78.235 112.978 78.9768C113.749 78.9768 114.406 78.9768 115.149 78.9768ZM119.034 78.9483C119.034 78.1494 119.034 77.4647 119.034 76.7514C118.263 76.7514 117.549 76.7514 116.835 76.7514C116.835 77.5217 116.835 78.235 116.835 78.9483C117.606 78.9483 118.32 78.9483 119.034 78.9483Z" fill="#3A4147"/>
<path d="M119.035 57.3796C114.178 57.3796 109.379 57.3796 104.522 57.3796C104.522 56.8946 104.522 56.4667 104.522 55.9531C109.322 55.9531 114.15 55.9531 119.035 55.9531C119.035 56.3811 119.035 56.8376 119.035 57.3796Z" fill="#3A4147"/>
<path d="M107.579 54.0127C110.35 54.0127 113.121 54.0127 115.921 54.0127C115.921 54.4692 115.921 54.9257 115.921 55.4392C113.178 55.4392 110.407 55.4392 107.579 55.4392C107.579 54.9827 107.579 54.5262 107.579 54.0127Z" fill="#3A4147"/>
</svg>
