<?xml version="1.0" encoding="utf-8"?>
<!-- Generator: Adobe Illustrator 26.0.3, SVG Export Plug-In . SVG Version: 6.00 Build 0)  -->
<svg version="1.1" id="Layer_1" xmlns="http://www.w3.org/2000/svg" xmlns:xlink="http://www.w3.org/1999/xlink" x="0px" y="0px"
	 viewBox="0 0 684 650" style="enable-background:new 0 0 684 650;" xml:space="preserve">
<style type="text/css">
	.st0{fill-rule:evenodd;clip-rule:evenodd;fill:#3A4147;}
	.st1{fill:#3A4147;}
</style>
<g>
	<g>
		<g>
			<path class="st0" d="M267,353.7c4.1,0,8.2,0,12.2,0c0.6,0,1.2-0.1,1.6,0.4c0.4,0.6-0.2,1-0.5,1.2c-8,7.4-12.6,17-17.8,26.2
				c-4.3,7.6-9.4,14.7-13,22.6c-2.8,6.1-4.4,12.5-2.7,19.3c1.4,5.7,4.8,10,9.2,13.5c6.7,5.4,14.5,8,22.9,7.4
				c7.3-0.5,13.8-3.7,19.9-8c9.9-7,17.8-15.9,24.8-25.7c2.3-3.2,2.8-3.4,6.6-2.6c3.3,0.7,6.7,0.9,10.1,1.7c8.2,2,15.6,5.6,22.7,9.8
				c11.8,6.9,23.7,13.7,35.6,20.5c13.5,7.8,27,15.6,40.5,23.3c7.2,4.1,14.4,8.2,21.5,12.5c9.7,5.9,13.7,14.9,12.3,25.8
				c-1.2,9.4-8,18.4-19.1,21c-4.1,1-8.2,1.3-12.3,0.2c-0.8-0.2-1.3,0-1.4,0.8c-0.6,5-3.3,9-6.3,12.7c-3.1,3.8-7.3,5.9-12,7.1
				c-4.3,1.2-8.7,1.5-13,0.4c-1.7-0.4-1.4,1-1.6,1.9c-1.9,6.5-5.3,12-11.1,15.7c-8.3,5.1-17,5.7-25.8,1.2c-1.4-0.7-1.7-0.8-2.2,0.9
				c-3,9.7-9.1,16.3-19.2,18.7c-8.1,1.9-15.4-0.3-22.2-4.8c-2.1-1.3-2.9-2.1-1.8-4.9c5.9-14.7,1.3-29.6-11.7-39
				c-1-0.7-2.1-1.6-3.2-1.8c-3.6-0.7-4.6-3.2-5.2-6.3c-0.8-3.9-2.7-7.3-4.8-10.6c-1.1-1.7-1.2-2.6-3.3-5.1c-1.7-2-4.2-3-6.6-3.9
				c-4-1.6-6.2-3.9-7.5-8.6c-2.9-10.4-10-17.8-20.6-20.9c-4.7-1.4-9.6-2.8-14.7-1.1c-2.3,0.8-3.7,0.1-5.1-2.3
				c-7.1-12.4-21.3-18.3-35.3-14.9c-4.8,1.2-9,3.8-13.2,6.4c-3.8,2.3-3.7,2.3-5.5-1.7c-3.4-7.4-2.2-14.3,1.7-21.1
				c10.2-17.6,20.2-35.3,30.3-52.9c4.4-7.6,8.3-15.5,13.3-22.8c6-8.7,14.6-12.8,25.1-12.7C261.5,353.7,264.3,353.7,267,353.7z"/>
			<path class="st0" d="M375.7,353.7c15.7,0,31.3,0.2,47-0.1c14.4-0.3,24.4,6,31.4,18.4c10,17.9,20.5,35.5,30.6,53.3
				c2.5,4.4,5.3,8.6,7.4,13.3c4.4,9.8,1.4,17.6-6.2,23.6c-2.3,1.8-5.1,3.2-7.6,4.8c-1.2,0.7-2.2,0.4-3.3-0.2
				c-15-8.7-30-17.4-45.1-26c-16.1-9.2-32.3-18.4-48.4-27.6c-6.4-3.7-12.7-7.5-19.3-10.9c-6.5-3.5-13.5-5.7-20.8-7.4
				c-7.1-1.6-14.2-1.5-21.3-1.6c-1.9,0-3,0.7-4,2.3c-5.5,8.3-11.5,16.3-18.9,23.1c-4,3.7-8.4,7-13.6,9c-4.6,1.8-9.4,2.2-14.1,0.3
				c-6.7-2.8-10.4-9.6-6.2-17.4c5.2-9.6,10.5-19.2,16.2-28.6c3.4-5.6,6.7-11.3,11.8-15.6c5.6-4.9,12-8.2,19.2-10.1
				c7.4-1.9,14.9-2.4,22.5-2.4C347.2,353.7,361.4,353.7,375.7,353.7z"/>
			<path class="st0" d="M283.5,519.1c7,5,10.1,13.1,6.3,22.1c-0.4,0.9-0.8,1.8-0.8,2.9c2.9-0.5,5.7-1.1,8.7-0.7
				c7.3,0.8,13.3,6.1,15,13.3c1.6,6.9-1.5,14.7-7.4,18.3c-4.7,2.8-9.3,5.7-14.3,8.1c-10.8,5.2-25,1.2-31.5-8.8
				c-1.3-1.9-1.6-5.1-3.6-5.7c-1.9-0.6-4.3-0.4-6.6-0.7c-7.4-1-13-4.8-17.1-10.9c-0.1-0.2-0.4-0.4-0.5-0.6c-1.6-4.2-4.8-5-9.1-5.5
				c-13.2-1.5-22.3-12.1-22.8-25.2c-0.1-1.2-0.3-2.2-1.5-2.9c-17.1-10.5-16.9-34.6,1-44.7c3.2-1.8,6.3-4,9.9-5.3
				c8.3-3.1,20.2,0.4,23.8,8.6c1.5,5.3,1.6,3.6,2.7,12.2c0,0.2-0.2,0.5-0.2,0.7c0,0.1,0.1,0.1,0.2,0.3c4.5-1.3,3.1,0,7.5-2.5
				c6.9-4,14.6-3.5,20.5,1.3c5.8,4.8,7.6,12.2,5,19.7c-0.5,1.3-0.8,2.7-1.8,4.2c3.2-0.9,6.2-1.3,9.2-1L283.5,519.1z"/>
			<path class="st0" d="M499.7,316.9l-37.8,21.8c-4.2,2.4-5.6,7.7-3.2,11.9l72,124.7c2.4,4.2,7.7,5.6,11.9,3.2l37.8-21.8
				c4.2-2.4,5.6-7.7,3.2-11.9l-72-124.7C509.2,315.9,503.9,314.5,499.7,316.9z M552.8,452.5c-5.2,3-11.9,1.2-14.9-4
				s-1.2-11.9,4-14.9c5.2-3,11.9-1.2,14.9,4C559.8,442.8,558,449.5,552.8,452.5z"/>
			<path class="st0" d="M172.4,320.1l-72,124.7c-2.4,4.2-1,9.5,3.2,11.9l37.8,21.8c4.2,2.4,9.5,1,11.9-3.2l72-124.7
				c2.4-4.2,1-9.5-3.2-11.9l-37.8-21.8C180.1,314.5,174.8,315.9,172.4,320.1z M127.2,437.6c3-5.2,9.7-7,14.9-4c5.2,3,7,9.7,4,14.9
				c-3,5.2-9.7,7-14.9,4C126,449.5,124.2,442.8,127.2,437.6z"/>
		</g>
	</g>
	<g>
		<path class="st1" d="M407.7,307.7c6.5,0,11.8,0,17.5,0c0,2.9,0,5.2,0,8.1c-57,0-114.2,0-171.9,0c0-2.3,0-4.9,0-8.2
			c7.3,0,14.8,0,22.7,0c0-67.5,0-134.3,0-201.6c44,0,87.5,0,131.8,0C407.7,172.8,407.7,239.8,407.7,307.7z M317.6,284.3
			c0,8,0,15.4,0,22.8c14.7,0,28.9,0,42.9,0c0-7.9,0-15.3,0-22.8C346,284.3,332.1,284.3,317.6,284.3z M288.2,123.4
			c0,6.1,0,11.4,0,16.8c5.8,0,11.2,0,16.7,0c0-5.9,0-11.3,0-16.8C299.1,123.4,293.9,123.4,288.2,123.4z M334.4,140.4
			c0-6.1,0-11.3,0-16.9c-5.8,0-11.2,0-16.7,0c0,5.9,0,11.3,0,16.9C323.4,140.4,328.6,140.4,334.4,140.4z M349.6,140.1
			c6.1,0,11.6,0,16.9,0c0-5.8,0-11.1,0-16.6c-5.8,0-11.2,0-16.9,0C349.6,129.2,349.6,134.5,349.6,140.1z M379.2,123.4
			c0,6.2,0,11.7,0,16.9c5.9,0,11.1,0,16.5,0c0-5.8,0-11.3,0-16.9C390,123.4,384.8,123.4,379.2,123.4z M288.2,172.5
			c6.1,0,11.4,0,16.8,0c0-5.8,0-11.3,0-16.6c-5.9,0-11.3,0-16.8,0C288.2,161.6,288.2,166.9,288.2,172.5z M317.5,172.5
			c6.1,0,11.4,0,16.8,0c0-5.8,0-11.3,0-16.6c-5.9,0-11.3,0-16.8,0C317.5,161.6,317.5,166.9,317.5,172.5z M366.6,155.8
			c-6.1,0-11.5,0-16.7,0c0,6,0,11.4,0,16.6c5.9,0,11.1,0,16.7,0C366.6,166.8,366.6,161.6,366.6,155.8z M379,155.6
			c0,6.1,0,11.3,0,16.9c5.8,0,11.2,0,16.7,0c0-5.9,0-11.3,0-16.9C390,155.6,384.7,155.6,379,155.6z M288.3,187.9
			c0,6.1,0,11.4,0,16.8c5.8,0,11.3,0,16.6,0c0-5.9,0-11.3,0-16.8C299.1,187.9,293.8,187.9,288.3,187.9z M317.4,204.5
			c6.1,0,11.6,0,16.9,0c0-5.8,0-11.1,0-16.6c-5.8,0-11.2,0-16.9,0C317.4,193.6,317.4,198.9,317.4,204.5z M349.7,204.7
			c6.1,0,11.4,0,16.8,0c0-5.8,0-11.2,0-16.7c-5.9,0-11.3,0-16.8,0C349.7,193.8,349.7,199.1,349.7,204.7z M395.8,204.8
			c0-6.1,0-11.4,0-16.8c-5.8,0-11.3,0-16.6,0c0,5.9,0,11.3,0,16.8C385,204.8,390.2,204.8,395.8,204.8z M288.2,234
			c5.8,0,11.2,0,16.7,0c0-5.9,0-11.3,0-16.6c-5.9,0-11.4,0-16.7,0C288.2,223.2,288.2,228.4,288.2,234z M317.6,217.1
			c0,6,0,11.4,0,16.7c5.9,0,11.4,0,16.7,0c0-5.8,0-11.1,0-16.7C328.7,217.1,323.5,217.1,317.6,217.1z M366.5,234.1
			c0-6.1,0-11.4,0-16.8c-5.8,0-11.2,0-16.7,0c0,5.9,0,11.3,0,16.8C355.6,234.1,360.9,234.1,366.5,234.1z M395.8,234
			c0-6.1,0-11.4,0-16.8c-5.8,0-11.3,0-16.6,0c0,5.9,0,11.3,0,16.8C385,234,390.2,234,395.8,234z M288.3,249.4c0,6.1,0,11.4,0,16.8
			c5.8,0,11.3,0,16.6,0c0-5.9,0-11.3,0-16.8C299.1,249.4,293.8,249.4,288.3,249.4z M317.4,266.1c6.1,0,11.5,0,16.7,0
			c0-6,0-11.4,0-16.6c-5.9,0-11.1,0-16.7,0C317.4,255.1,317.4,260.3,317.4,266.1z M366.3,266.5c0-5.7,0-11.3,0-16.9
			c-5.7,0-11.1,0-16.4,0c0,5.9,0,11.4,0,16.9C355.5,266.5,360.6,266.5,366.3,266.5z M395.8,266.3c0-6.1,0-11.4,0-16.8
			c-5.8,0-11.3,0-16.6,0c0,5.9,0,11.3,0,16.8C385,266.3,390.2,266.3,395.8,266.3z"/>
		<path class="st1" d="M395.7,102.3c-37,0-73.4,0-110.3,0c0-3.6,0-6.9,0-10.8c36.5,0,73.1,0,110.3,0
			C395.7,94.7,395.7,98.2,395.7,102.3z"/>
		<path class="st1" d="M308.8,76.6c21.1,0,42,0,63.4,0c0,3.4,0,6.9,0,10.9c-20.9,0-41.9,0-63.4,0C308.8,83.9,308.8,80.4,308.8,76.6z
			"/>
	</g>
	<g>
		<path class="st1" d="M255.4,293.1c3,0,5.5,0,8.1,0c0,1.3,0,2.4,0,3.7c-26.3,0-52.6,0-79.2,0c0-1.1,0-2.2,0-3.8c3.4,0,6.8,0,10.5,0
			c0-31.1,0-61.9,0-92.9c20.3,0,40.3,0,60.7,0C255.4,230.9,255.4,261.8,255.4,293.1z M213.9,282.3c0,3.7,0,7.1,0,10.5
			c6.8,0,13.3,0,19.7,0c0-3.7,0-7.1,0-10.5C227,282.3,220.6,282.3,213.9,282.3z M200.4,208.2c0,2.8,0,5.2,0,7.7c2.7,0,5.2,0,7.7,0
			c0-2.7,0-5.2,0-7.7C205.4,208.2,203,208.2,200.4,208.2z M221.6,216c0-2.8,0-5.2,0-7.8c-2.7,0-5.2,0-7.7,0c0,2.7,0,5.2,0,7.8
			C216.5,216,219,216,221.6,216z M228.7,215.9c2.8,0,5.3,0,7.8,0c0-2.7,0-5.1,0-7.6c-2.7,0-5.2,0-7.8,0
			C228.7,210.8,228.7,213.3,228.7,215.9z M242.3,208.1c0,2.9,0,5.4,0,7.8c2.7,0,5.1,0,7.6,0c0-2.7,0-5.2,0-7.8
			C247.3,208.1,244.9,208.1,242.3,208.1z M200.3,230.8c2.8,0,5.2,0,7.7,0c0-2.7,0-5.2,0-7.7c-2.7,0-5.2,0-7.7,0
			C200.3,225.8,200.3,228.2,200.3,230.8z M213.8,230.8c2.8,0,5.2,0,7.7,0c0-2.7,0-5.2,0-7.7c-2.7,0-5.2,0-7.7,0
			C213.8,225.8,213.8,228.2,213.8,230.8z M236.5,223.1c-2.8,0-5.3,0-7.7,0c0,2.8,0,5.3,0,7.7c2.7,0,5.1,0,7.7,0
			C236.5,228.2,236.5,225.8,236.5,223.1z M242.2,223c0,2.8,0,5.2,0,7.8c2.7,0,5.2,0,7.7,0c0-2.7,0-5.2,0-7.8
			C247.3,223,244.8,223,242.2,223z M200.4,237.9c0,2.8,0,5.2,0,7.7c2.7,0,5.2,0,7.7,0c0-2.7,0-5.2,0-7.7
			C205.4,237.9,202.9,237.9,200.4,237.9z M213.8,245.6c2.8,0,5.3,0,7.8,0c0-2.7,0-5.1,0-7.6c-2.7,0-5.2,0-7.8,0
			C213.8,240.5,213.8,243,213.8,245.6z M228.7,245.6c2.8,0,5.2,0,7.7,0c0-2.7,0-5.2,0-7.7c-2.7,0-5.2,0-7.7,0
			C228.7,240.6,228.7,243,228.7,245.6z M249.9,245.7c0-2.8,0-5.2,0-7.7c-2.7,0-5.2,0-7.7,0c0,2.7,0,5.2,0,7.7
			C244.9,245.7,247.4,245.7,249.9,245.7z M200.3,259.1c2.7,0,5.2,0,7.7,0c0-2.7,0-5.2,0-7.7c-2.7,0-5.2,0-7.7,0
			C200.3,254.1,200.3,256.6,200.3,259.1z M213.9,251.4c0,2.8,0,5.3,0,7.7c2.7,0,5.2,0,7.7,0c0-2.7,0-5.1,0-7.7
			C219,251.4,216.6,251.4,213.9,251.4z M236.4,259.2c0-2.8,0-5.2,0-7.7c-2.7,0-5.2,0-7.7,0c0,2.7,0,5.2,0,7.7
			C231.4,259.2,233.8,259.2,236.4,259.2z M249.9,259.2c0-2.8,0-5.2,0-7.7c-2.7,0-5.2,0-7.7,0c0,2.7,0,5.2,0,7.7
			C244.9,259.2,247.4,259.2,249.9,259.2z M200.4,266.2c0,2.8,0,5.2,0,7.7c2.7,0,5.2,0,7.7,0c0-2.7,0-5.2,0-7.7
			C205.4,266.2,202.9,266.2,200.4,266.2z M213.8,273.9c2.8,0,5.3,0,7.7,0c0-2.8,0-5.3,0-7.7c-2.7,0-5.1,0-7.7,0
			C213.8,268.8,213.8,271.3,213.8,273.9z M236.3,274.1c0-2.6,0-5.2,0-7.8c-2.6,0-5.1,0-7.6,0c0,2.7,0,5.2,0,7.8
			C231.4,274.1,233.7,274.1,236.3,274.1z M249.9,274c0-2.8,0-5.2,0-7.7c-2.7,0-5.2,0-7.7,0c0,2.7,0,5.2,0,7.7
			C244.9,274,247.4,274,249.9,274z"/>
		<path class="st1" d="M249.9,198.4c-17,0-33.8,0-50.8,0c0-1.7,0-3.2,0-5c16.8,0,33.7,0,50.8,0C249.9,194.9,249.9,196.5,249.9,198.4
			z"/>
		<path class="st1" d="M209.8,186.6c9.7,0,19.4,0,29.2,0c0,1.6,0,3.2,0,5c-9.6,0-19.3,0-29.2,0C209.8,190,209.8,188.4,209.8,186.6z"
			/>
	</g>
	<g>
		<path class="st1" d="M492.4,293.1c3,0,5.5,0,8.1,0c0,1.3,0,2.4,0,3.7c-26.3,0-52.6,0-79.2,0c0-1.1,0-2.2,0-3.8c3.4,0,6.8,0,10.5,0
			c0-31.1,0-61.9,0-92.9c20.3,0,40.3,0,60.7,0C492.4,230.9,492.4,261.8,492.4,293.1z M450.9,282.3c0,3.7,0,7.1,0,10.5
			c6.8,0,13.3,0,19.7,0c0-3.7,0-7.1,0-10.5C464,282.3,457.6,282.3,450.9,282.3z M437.4,208.2c0,2.8,0,5.2,0,7.7c2.7,0,5.2,0,7.7,0
			c0-2.7,0-5.2,0-7.7C442.4,208.2,440,208.2,437.4,208.2z M458.6,216c0-2.8,0-5.2,0-7.8c-2.7,0-5.2,0-7.7,0c0,2.7,0,5.2,0,7.8
			C453.5,216,456,216,458.6,216z M465.7,215.9c2.8,0,5.3,0,7.8,0c0-2.7,0-5.1,0-7.6c-2.7,0-5.2,0-7.8,0
			C465.7,210.8,465.7,213.3,465.7,215.9z M479.3,208.1c0,2.9,0,5.4,0,7.8c2.7,0,5.1,0,7.6,0c0-2.7,0-5.2,0-7.8
			C484.3,208.1,481.9,208.1,479.3,208.1z M437.3,230.8c2.8,0,5.2,0,7.7,0c0-2.7,0-5.2,0-7.7c-2.7,0-5.2,0-7.7,0
			C437.3,225.8,437.3,228.2,437.3,230.8z M450.8,230.8c2.8,0,5.2,0,7.7,0c0-2.7,0-5.2,0-7.7c-2.7,0-5.2,0-7.7,0
			C450.8,225.8,450.8,228.2,450.8,230.8z M473.5,223.1c-2.8,0-5.3,0-7.7,0c0,2.8,0,5.3,0,7.7c2.7,0,5.1,0,7.7,0
			C473.5,228.2,473.5,225.8,473.5,223.1z M479.2,223c0,2.8,0,5.2,0,7.8c2.7,0,5.2,0,7.7,0c0-2.7,0-5.2,0-7.8
			C484.3,223,481.8,223,479.2,223z M437.4,237.9c0,2.8,0,5.2,0,7.7c2.7,0,5.2,0,7.7,0c0-2.7,0-5.2,0-7.7
			C442.4,237.9,439.9,237.9,437.4,237.9z M450.8,245.6c2.8,0,5.3,0,7.8,0c0-2.7,0-5.1,0-7.6c-2.7,0-5.2,0-7.8,0
			C450.8,240.5,450.8,243,450.8,245.6z M465.7,245.6c2.8,0,5.2,0,7.7,0c0-2.7,0-5.2,0-7.7c-2.7,0-5.2,0-7.7,0
			C465.7,240.6,465.7,243,465.7,245.6z M486.9,245.7c0-2.8,0-5.2,0-7.7c-2.7,0-5.2,0-7.7,0c0,2.7,0,5.2,0,7.7
			C481.9,245.7,484.4,245.7,486.9,245.7z M437.3,259.1c2.7,0,5.2,0,7.7,0c0-2.7,0-5.2,0-7.7c-2.7,0-5.2,0-7.7,0
			C437.3,254.1,437.3,256.6,437.3,259.1z M450.9,251.4c0,2.8,0,5.3,0,7.7c2.7,0,5.2,0,7.7,0c0-2.7,0-5.1,0-7.7
			C456,251.4,453.6,251.4,450.9,251.4z M473.4,259.2c0-2.8,0-5.2,0-7.7c-2.7,0-5.2,0-7.7,0c0,2.7,0,5.2,0,7.7
			C468.4,259.2,470.8,259.2,473.4,259.2z M486.9,259.2c0-2.8,0-5.2,0-7.7c-2.7,0-5.2,0-7.7,0c0,2.7,0,5.2,0,7.7
			C481.9,259.2,484.4,259.2,486.9,259.2z M437.4,266.2c0,2.8,0,5.2,0,7.7c2.7,0,5.2,0,7.7,0c0-2.7,0-5.2,0-7.7
			C442.4,266.2,439.9,266.2,437.4,266.2z M450.8,273.9c2.8,0,5.3,0,7.7,0c0-2.8,0-5.3,0-7.7c-2.7,0-5.1,0-7.7,0
			C450.8,268.8,450.8,271.3,450.8,273.9z M473.3,274.1c0-2.6,0-5.2,0-7.8c-2.6,0-5.1,0-7.6,0c0,2.7,0,5.2,0,7.8
			C468.4,274.1,470.7,274.1,473.3,274.1z M486.9,274c0-2.8,0-5.2,0-7.7c-2.7,0-5.2,0-7.7,0c0,2.7,0,5.2,0,7.7
			C481.9,274,484.4,274,486.9,274z"/>
		<path class="st1" d="M486.9,198.4c-17,0-33.8,0-50.8,0c0-1.7,0-3.2,0-5c16.8,0,33.7,0,50.8,0C486.9,194.9,486.9,196.5,486.9,198.4
			z"/>
		<path class="st1" d="M446.8,186.6c9.7,0,19.4,0,29.2,0c0,1.6,0,3.2,0,5c-9.6,0-19.3,0-29.2,0C446.8,190,446.8,188.4,446.8,186.6z"
			/>
	</g>
</g>
</svg>
