<?xml version="1.0" encoding="UTF-8"?>
<svg width="3600pt" height="3600pt" version="1.1" viewBox="0 0 3600 3600" xmlns="http://www.w3.org/2000/svg">
 <g fill="#394046">
  <path d="m1755.4 545.76h-202.68c-4.7734 0-9.3516 1.8945-12.727 5.2695s-5.2734 7.9531-5.2734 12.73v202.68c0 4.7734 1.8984 9.3516 5.2734 12.727s7.9531 5.2734 12.727 5.2734h202.68c4.7734 0 9.3516-1.8984 12.73-5.2734 3.375-3.375 5.2695-7.9531 5.2695-12.727v-202.68c0-4.7773-1.8945-9.3555-5.2695-12.73-3.3789-3.375-7.957-5.2695-12.73-5.2695zm-18 202.68h-166.68v-166.68h166.68z"/>
  <path d="m1755.4 864h-202.68c-4.7734 0-9.3516 1.8945-12.727 5.2734-3.375 3.375-5.2734 7.9531-5.2734 12.727v202.68c0 4.7734 1.8984 9.3516 5.2734 12.727 3.375 3.3789 7.9531 5.2734 12.727 5.2734h202.68c4.7734 0 9.3516-1.8945 12.73-5.2734 3.375-3.375 5.2695-7.9531 5.2695-12.727v-202.68c0-4.7734-1.8945-9.3516-5.2695-12.727-3.3789-3.3789-7.957-5.2734-12.73-5.2734zm-18 202.68h-166.68v-166.68h166.68z"/>
  <path d="m1826.6 882v202.68c0 4.7734 1.8945 9.3516 5.2695 12.727 3.3789 3.3789 7.957 5.2734 12.73 5.2734h203.04c4.7734 0 9.3516-1.8945 12.727-5.2734 3.3789-3.375 5.2734-7.9531 5.2734-12.727v-202.68c0-4.7734-1.8945-9.3516-5.2734-12.727-3.375-3.3789-7.9531-5.2734-12.727-5.2734h-203.04c-4.7734 0-9.3516 1.8945-12.73 5.2734-3.375 3.375-5.2695 7.9531-5.2695 12.727zm36 18h167.04v166.68h-167.04z"/>
  <path d="m1755.4 1182.2h-202.68c-4.7734 0-9.3516 1.8984-12.727 5.2734s-5.2734 7.9531-5.2734 12.727v203.76c0 4.7734 1.8984 9.3516 5.2734 12.727 3.375 3.3789 7.9531 5.2734 12.727 5.2734h202.68c4.7734 0 9.3516-1.8945 12.73-5.2734 3.375-3.375 5.2695-7.9531 5.2695-12.727v-203.76c0-4.7734-1.8945-9.3516-5.2695-12.727-3.3789-3.375-7.957-5.2734-12.73-5.2734zm-18 202.68-166.68 0.003906v-166.68h166.68z"/>
  <path d="m2047.7 1182.2h-203.04c-4.7734 0-9.3516 1.8984-12.73 5.2734-3.375 3.375-5.2695 7.9531-5.2695 12.727v203.76c0 4.7734 1.8945 9.3516 5.2695 12.727 3.3789 3.3789 7.957 5.2734 12.73 5.2734h203.04c4.7734 0 9.3516-1.8945 12.727-5.2734 3.3789-3.375 5.2734-7.9531 5.2734-12.727v-203.76c0-4.7734-1.8945-9.3516-5.2734-12.727-3.375-3.375-7.9531-5.2734-12.727-5.2734zm-18 202.68-167.04 0.003906v-166.68h167.04z"/>
  <path d="m1755.4 1500.5h-202.68c-4.7734 0-9.3516 1.8945-12.727 5.2734-3.375 3.375-5.2734 7.9531-5.2734 12.727v202.68c0 4.7734 1.8984 9.3516 5.2734 12.727s7.9531 5.2734 12.727 5.2734h202.68c4.7734 0 9.3516-1.8984 12.73-5.2734 3.375-3.375 5.2695-7.9531 5.2695-12.727v-202.68c0-4.7734-1.8945-9.3516-5.2695-12.727-3.3789-3.3789-7.957-5.2734-12.73-5.2734zm-18 202.68h-166.68v-166.68h166.68z"/>
  <path d="m1141.6 1437.1h203.04c4.7734 0 9.3516-1.8984 12.727-5.2734s5.2734-7.9531 5.2734-12.727v-203.04c0-4.7734-1.8984-9.3516-5.2734-12.727s-7.9531-5.2734-12.727-5.2734h-203.04c-4.7734 0-9.3516 1.8984-12.727 5.2734s-5.2734 7.9531-5.2734 12.727v203.04c0.09375 4.7422 2.0195 9.2695 5.375 12.625 3.3555 3.3555 7.8828 5.2812 12.625 5.375zm18-203.04h167.04v167.04h-167.04z"/>
  <path d="m1141.6 1739.2h203.04c4.7734 0 9.3516-1.8984 12.727-5.2734s5.2734-7.9531 5.2734-12.727v-202.68c0-4.7734-1.8984-9.3516-5.2734-12.727-3.375-3.3789-7.9531-5.2734-12.727-5.2734h-203.04c-4.7734 0-9.3516 1.8945-12.727 5.2734-3.375 3.375-5.2734 7.9531-5.2734 12.727v202.68c0 4.7734 1.8984 9.3516 5.2734 12.727s7.9531 5.2734 12.727 5.2734zm18-202.68h167.04v166.68h-167.04z"/>
  <path d="m2255.4 1414.8h203.04c4.7422-0.09375 9.2695-2.0195 12.625-5.375 3.3555-3.3555 5.2812-7.8789 5.375-12.625v-203.04c0-4.7773-1.8984-9.3555-5.2734-12.73s-7.9531-5.2695-12.727-5.2695h-203.04c-4.7734 0-9.3516 1.8945-12.727 5.2695s-5.2734 7.9531-5.2734 12.73v203.04c0.09375 4.7461 2.0195 9.2695 5.375 12.625 3.3555 3.3555 7.8828 5.2812 12.625 5.375zm18-203.04h167.04l0.003906 167.04h-167.04z"/>
  <path d="m2255.4 1716.8h203.04c4.7734 0 9.3516-1.8945 12.727-5.2734 3.375-3.375 5.2734-7.9531 5.2734-12.727v-202.68c0-4.7734-1.8984-9.3516-5.2734-12.727-3.375-3.3789-7.9531-5.2734-12.727-5.2734h-203.04c-4.7734 0-9.3516 1.8945-12.727 5.2734-3.375 3.375-5.2734 7.9531-5.2734 12.727v202.68c0 4.7734 1.8984 9.3516 5.2734 12.727 3.375 3.3789 7.9531 5.2734 12.727 5.2734zm18-202.68h167.04v166.68h-167.04z"/>
  <path d="m2047.7 1500.5h-203.04c-4.7734 0-9.3516 1.8945-12.73 5.2734-3.375 3.375-5.2695 7.9531-5.2695 12.727v202.68c0 4.7734 1.8945 9.3516 5.2695 12.727 3.3789 3.375 7.957 5.2734 12.73 5.2734h203.04c4.7734 0 9.3516-1.8984 12.727-5.2734 3.3789-3.375 5.2734-7.9531 5.2734-12.727v-202.68c0-4.7734-1.8945-9.3516-5.2734-12.727-3.375-3.3789-7.9531-5.2734-12.727-5.2734zm-18 202.68h-167.04v-166.68h167.04z"/>
  <path d="m2560.7 2103.1v-1000.4c0-4.7734-1.8945-9.3516-5.2734-12.727-3.375-3.375-7.9531-5.2734-12.727-5.2734h-354.24c-4.7891-198.39-86.883-387.07-228.78-525.8-141.9-138.73-332.38-216.56-530.82-216.88-4.7734 0-9.3516 1.8945-12.727 5.2734-3.375 3.375-5.2734 7.9531-5.2734 12.727v724.68h-353.16c-4.7734 0-9.3516 1.8984-12.727 5.2734s-5.2734 7.9531-5.2734 12.727v1025.6l-75.961 75.961c-21.102 20.492-32.934 48.703-32.758 78.117-0.027344 29.492 11.773 57.762 32.758 78.48l118.44 118.8c18.586 18.273 42.98 29.465 68.953 31.637 25.973 2.168 51.887-4.8203 73.246-19.758l7.5586 27.719 0.003906 0.003906c20.391 71.305 55.734 137.45 103.68 194.04l-16.559 15.84h-0.003907c-17.477 17.543-27.289 41.297-27.289 66.059 0 24.766 9.8125 48.52 27.289 66.062 17.258 17.668 40.824 27.766 65.52 28.078 6.793-0.10547 13.555-0.94922 20.16-2.5195-0.15234 3-0.15234 6.0039 0 9-0.76172 27.43 10.879 53.746 31.695 71.625 20.816 17.883 48.582 25.426 75.586 20.535-0.52734 4.9062-0.52734 9.8555 0 14.762-0.21875 24.73 9.3555 48.547 26.641 66.238 17.254 17.895 41.023 28.023 65.879 28.078h13.68c4.6797 0 0 9.7188 0 14.398v0.003907c-0.28906 24.824 9.3008 48.746 26.648 66.504 17.352 17.754 41.047 27.891 65.871 28.176 24.441-0.003906 47.879-9.7148 65.16-27l7.9219-7.5586 41.398 42.121v-0.003906c16.93 17.359 39.957 27.441 64.195 28.109 24.238 0.66406 47.781-8.1367 65.637-24.543 17.855-16.402 28.621-39.117 30.008-63.324 17.555 8.6367 37.348 11.648 56.676 8.6211 19.332-3.0273 37.254-11.949 51.324-25.543 16.887-16.176 26.938-38.203 28.082-61.559 17.332 7.7617 36.578 10.191 55.297 6.9883 18.719-3.207 36.059-11.902 49.82-24.988 17.66-17.414 27.746-41.082 28.082-65.879 26.758 9.9531 56.594 7.1523 81.031-7.6094 24.438-14.762 40.801-39.871 44.441-68.184 3.6406-28.316-5.8438-56.746-25.754-77.207l-92.16-93.602c16.078-17.574 28.164-38.414 35.434-61.094s9.5508-46.664 6.6875-70.305c-0.37109-36.5 16.262-71.098 45-93.602l50.039-39.961c20.082 7.8086 41.996 9.6211 63.086 5.2109s40.445-14.848 55.715-30.051l118.44-118.44v0.003907c20.984-20.723 32.785-48.992 32.758-78.48 0.17578-29.414-11.656-57.629-32.758-78.121zm-174.24 324-309.24-309.6h-0.003906c-14.004-13.977-21.871-32.953-21.871-52.738 0-19.789 7.8672-38.762 21.871-52.742l118.8-118.8c13.879-13.969 32.871-21.645 52.559-21.238 19.879-0.10547 38.957 7.8125 52.922 21.961l309.6 309.24h-0.003906c13.98 14.078 21.867 33.082 21.961 52.922 0.066407 19.867-7.8438 38.934-21.961 52.918l-118.8 118.8h0.003906c-13.898 14.168-32.852 22.242-52.699 22.445-19.844 0.20312-38.957-7.4805-53.141-21.363zm-118.44 187.56c3.7461 38.164-9.4062 76.051-36 103.68l-333.36-333.36c-3.3828-3.2578-7.9023-5.0664-12.602-5.0391-3.2969-0.070313-6.543 0.80469-9.3594 2.5195l-169.56 101.52c-16.02 9.0664-35.445 9.7656-52.074 1.875s-28.375-23.383-31.48-41.523c-3.1055-18.141 2.8164-36.66 15.875-49.633 43.551-44.598 91.836-84.312 144-118.44 31.406-14.613 65.453-22.695 100.08-23.762 16.414-1.2188 32.754-3.2617 48.961-6.1211 42.121-8.6406 99.359-64.441 124.92-91.801l306 306-36 29.879-0.003906 0.003907c-38.406 29.613-60.453 75.715-59.398 124.2zm54.719 330.12c-10.93 10.516-25.512 16.391-40.68 16.391-15.168 0-29.746-5.875-40.68-16.391l-18.359-19.078-78.48-75.961c-4.7148-3.8945-11.082-5.125-16.91-3.2734-5.8242 1.8555-10.312 6.5352-11.914 12.438-1.6055 5.8984-0.10156 12.207 3.9844 16.754l78.48 76.32c10.645 10.863 16.59 25.473 16.559 40.68-0.98047 14.789-7.6992 28.609-18.719 38.52-10.973 10.434-25.539 16.254-40.68 16.254-15.145 0-29.707-5.8203-40.68-16.254l-23.039-23.762-47.16-50.039c-3.3828-3.4062-7.9805-5.3242-12.781-5.3242-4.8008 0-9.3984 1.918-12.781 5.3242-3.3867 3.3203-5.293 7.8594-5.293 12.602s1.9062 9.2812 5.293 12.602l47.16 50.039c10.07 10.953 15.449 25.422 14.977 40.293-0.47266 14.875-6.7539 28.969-17.496 39.266-10.914 10.41-25.418 16.219-40.5 16.219s-29.586-5.8086-40.5-16.219l-26.641-27.359-40.32-38.879c-3.3164-3.3867-7.8594-5.2969-12.598-5.2969-4.7422 0-9.2812 1.9102-12.602 5.2969-3.4062 3.3789-5.3242 7.9805-5.3242 12.777 0 4.8008 1.918 9.4023 5.3242 12.781l39.961 38.52c10.555 10.77 16.465 25.242 16.465 40.32s-5.9102 29.555-16.465 40.32c-10.934 10.516-25.512 16.391-40.68 16.391s-29.75-5.875-40.68-16.391l-41.762-44.641 38.16-36c17.586-17.934 27.191-42.207 26.641-67.32 0.46484-24.777-9.1523-48.68-26.641-66.238-17.301-17.824-41.039-27.945-65.879-28.082-4.9141-0.33594-9.8477-0.33594-14.762 0 0.52734-4.9062 0.52734-9.8516 0-14.758 0.38672-24.82-9.1797-48.762-26.562-66.48-17.383-17.723-41.133-27.746-65.957-27.84-4.9141-0.35547-9.8438-0.35547-14.758 0 0.52734-5.0273 0.52734-10.094 0-15.121 0.28516-24.789-9.3125-48.676-26.672-66.375-17.363-17.699-41.059-27.754-65.848-27.945h-9c1.8633-6.9258 2.832-14.066 2.8789-21.238-1.7109-23.223-12.02-44.973-28.906-61.004s-39.141-25.191-62.422-25.695c-23.277-0.5-45.91 7.6914-63.473 22.98l-43.922 43.199c-43.766-52.742-76.016-114.05-94.68-180l-12.602-45.359 284.76-284.4 24.48 19.078c51.867 41.504 117.29 62.285 183.6 58.32-46.551 33.977-90.586 71.273-131.76 111.6-22.84 20.812-33.73 51.684-29.004 82.219s24.438 56.672 52.5 69.605c28.062 12.93 60.742 10.941 87.023-5.3047l159.48-95.039 254.52 254.52 185.04 188.64h0.003906c10.77 10.797 16.82 25.426 16.82 40.68 0 15.254-6.0508 29.883-16.82 40.68zm-615.6 225h0.003906c-15.16-0.36719-29.598-6.5547-40.32-17.281-10.699-10.973-16.648-25.715-16.562-41.039 0.37109-15.16 6.5586-29.598 17.281-40.32l72-72c10.832-10.426 25.289-16.234 40.32-16.199 15.375 0.27734 29.992 6.7305 40.555 17.906 10.562 11.172 16.188 26.125 15.605 41.492 0.027344 15.246-6.2227 29.828-17.281 40.32l-72 72c-10.504 9.668-24.242 15.059-38.52 15.121zm-146.52-125.28h0.003906c-10.746-10.797-16.711-25.449-16.562-40.68 0.36719-15.16 6.5547-29.598 17.281-40.32l72-72c10.676-10.434 25.031-16.254 39.961-16.199 15.18-0.082031 29.742 6.0312 40.32 16.918 10.695 10.977 16.645 25.719 16.559 41.043-0.17578 15.199-6.3945 29.707-17.281 40.32l-72 72c-10.941 10.477-25.531 16.285-40.68 16.199-15.242 0.027344-29.828-6.2227-40.32-17.281zm-130.32-373.68c14.66-14.598 35.996-20.266 55.969-14.867 19.977 5.4023 35.551 21.043 40.863 41.043 5.3086 19.996-0.44922 41.305-15.113 55.906l-42.84 42.84-44.281 41.039c-11.055 10.566-25.742 16.496-41.039 16.559-15.16-0.36719-29.598-6.5547-40.32-17.281-10.684-10.844-16.676-25.453-16.676-40.68 0-15.223 5.9922-29.836 16.676-40.68zm26.641 185.04 72-72c10.641-10.531 24.984-16.477 39.957-16.559 15.215 0.19141 29.734 6.3906 40.395 17.25 10.656 10.859 16.582 25.496 16.488 40.711-0.27734 15.285-6.4727 29.867-17.281 40.68l-72 70.199c-10.836 9.9375-25.062 15.355-39.762 15.145-14.703-0.21094-28.766-6.0352-39.309-16.281-10.547-10.246-16.773-24.133-17.41-38.824-0.12109-15.191 5.9961-29.766 16.922-40.32zm-243.36-401.76c-14.039 14.023-33.074 21.902-52.918 21.902-19.848 0-38.879-7.8789-52.922-21.902l-118.8-118.8h0.003906c-14.094-13.934-22.027-32.926-22.027-52.742s7.9336-38.809 22.027-52.738l309.6-309.6h-0.003907c13.965-14.148 33.043-22.062 52.922-21.957 19.793-0.21875 38.801 7.7266 52.559 21.957l118.8 118.8c14.094 13.934 22.023 32.926 22.023 52.742s-7.9297 38.809-22.023 52.738zm197.28-1332v757.8c-14.527-9.293-31.066-14.973-48.238-16.562v-42.84c0-4.7734-1.8984-9.3516-5.2734-12.727s-7.9531-5.2734-12.727-5.2734h-203.04c-4.7422 0.09375-9.2695 2.0195-12.625 5.375-3.3555 3.3555-5.2812 7.8789-5.375 12.625v203.04c0.082031 5.3633 2.6016 10.398 6.8398 13.68l-54.719 55.078v-972zm1113.8 945-53.641-53.281c3.4258-3.3008 5.375-7.8438 5.4023-12.602v-201.24c-0.09375-4.7461-2.0195-9.2695-5.375-12.625-3.3555-3.3555-7.8828-5.2812-12.625-5.375h-203.04c-4.7422 0.09375-9.2695 2.0195-12.625 5.375-3.3555 3.3555-5.2812 7.8789-5.375 12.625v39.961c-17.172 1.5898-33.711 7.2656-48.238 16.559v-735.84h335.52zm-1365.1-61.562v-167.04h167.04v27h0.003906c-20.312 4.3594-38.938 14.484-53.641 29.16l-110.88 110.88zm693.72 214.2 0.003906 0.003907c-21.336-1.4375-42.746-1.4375-64.082 0-55.383 6.4219-111.48-1.7734-162.72-23.762v-330.48h347.04v318.24c-13.941 12.355-30.223 21.781-47.879 27.719-14.875 2.7266-29.902 4.5312-45 5.3984zm587.16-236.88-113.4-113.4c-14.703-14.676-33.328-24.801-53.641-29.16v-24.121h167.04zm-288-96.121-100.44 101.52c-17.617 17.719-28.734 40.875-31.543 65.707-2.8086 24.828 2.8516 49.883 16.062 71.09-7.9219 8.6406-16.922 18-26.641 27.359v-304.92c-0.089844-4.7461-2.0156-9.2695-5.3711-12.625-3.3594-3.3555-7.8828-5.2812-12.629-5.375h-383.4c-4.7461 0.09375-9.2695 2.0195-12.625 5.375s-5.2852 7.8789-5.375 12.625v326.88l-4.6797-3.6016-23.398-18.359-0.003906 0.003906c14.035-21.258 20.273-46.719 17.648-72.055-2.6289-25.336-13.953-48.98-32.047-66.906l-101.52-101.52v-1533.6c188.94 4.8789 368.51 83.305 500.5 218.59 131.98 135.28 205.96 316.73 206.18 505.73z"/>
 </g>
</svg>
