<?xml version="1.0" encoding="UTF-8"?>
<svg width="3600pt" height="3600pt" version="1.1" viewBox="0 0 3600 3600" xmlns="http://www.w3.org/2000/svg">
 <g fill="#394046">
  <path d="m1293.8 2250h112.5v112.5h-112.5z"/>
  <path d="m1518.8 2250h112.5v112.5h-112.5z"/>
  <path d="m1293.8 2475h112.5v112.5h-112.5z"/>
  <path d="m1518.8 2475h112.5v112.5h-112.5z"/>
  <path d="m1293.8 2700h112.5v112.5h-112.5z"/>
  <path d="m1518.8 2700h112.5v112.5h-112.5z"/>
  <path d="m1968.8 2250h112.5v112.5h-112.5z"/>
  <path d="m2193.8 2250h112.5v112.5h-112.5z"/>
  <path d="m1968.8 2475h112.5v112.5h-112.5z"/>
  <path d="m2193.8 2475h112.5v112.5h-112.5z"/>
  <path d="m1968.8 2700h112.5v112.5h-112.5z"/>
  <path d="m1743.8 2250h112.5v112.5h-112.5z"/>
  <path d="m337.5 2700h112.5v112.5h-112.5z"/>
  <path d="m562.5 2700h112.5v112.5h-112.5z"/>
  <path d="m787.5 2700h112.5v112.5h-112.5z"/>
  <path d="m337.5 2475h112.5v112.5h-112.5z"/>
  <path d="m562.5 2475h112.5v112.5h-112.5z"/>
  <path d="m787.5 2475h112.5v112.5h-112.5z"/>
  <path d="m337.5 2250h112.5v112.5h-112.5z"/>
  <path d="m562.5 2250h112.5v112.5h-112.5z"/>
  <path d="m787.5 2250h112.5v112.5h-112.5z"/>
  <path d="m337.5 2025h112.5v112.5h-112.5z"/>
  <path d="m562.5 2025h112.5v112.5h-112.5z"/>
  <path d="m787.5 2025h112.5v112.5h-112.5z"/>
  <path d="m787.5 1800h112.5v112.5h-112.5z"/>
  <path d="m337.5 1800h112.5v112.5h-112.5z"/>
  <path d="m562.5 1800h112.5v112.5h-112.5z"/>
  <path d="m337.5 1575h112.5v112.5h-112.5z"/>
  <path d="m562.5 1575h112.5v112.5h-112.5z"/>
  <path d="m787.5 1575h112.5v112.5h-112.5z"/>
  <path d="m337.5 1350h112.5v112.5h-112.5z"/>
  <path d="m562.5 1350h112.5v112.5h-112.5z"/>
  <path d="m787.5 1350h112.5v112.5h-112.5z"/>
  <path d="m1743.8 2475h112.5v112.5h-112.5z"/>
  <path d="m1743.8 2700h112.5v112.5h-112.5z"/>
  <path d="m2193.8 2700h112.5v112.5h-112.5z"/>
  <path d="m3431.2 787.5c14.918 0 29.227-5.9258 39.773-16.477 10.551-10.547 16.477-24.855 16.477-39.773v-281.25c0-14.918-5.9258-29.227-16.477-39.773-10.547-10.551-24.855-16.477-39.773-16.477h-281.25v-112.5c0-14.918-5.9258-29.227-16.477-39.777l-112.5-112.5c-10.547-10.547-24.855-16.473-39.773-16.473h-112.5c-14.918 0-29.227 5.9258-39.773 16.473l-112.5 112.5c-10.551 10.551-16.477 24.859-16.477 39.777v112.5h-787.5c-12.773 0-25.164 4.3477-35.141 12.324l-281.25 225c-13.344 10.676-21.109 26.836-21.109 43.926v56.25c0 14.918 5.9258 29.227 16.477 39.773 10.547 10.551 24.855 16.477 39.773 16.477h112.5v281.25h-281.25c-14.918 0-29.227 5.9258-39.773 16.477-10.551 10.547-16.477 24.855-16.477 39.773v225c0 14.918 5.9258 29.227 16.477 39.773 10.547 10.551 24.855 16.477 39.773 16.477h675c14.918 0 29.227-5.9258 39.773-16.477 10.551-10.547 16.477-24.855 16.477-39.773v-225c0-14.918-5.9258-29.227-16.477-39.773-10.547-10.551-24.855-16.477-39.773-16.477h-281.25v-281.25h843.75v1631.2h-168.75v-324.22l106.56-213.12c8.7227-17.438 7.7891-38.148-2.457-54.73-10.25-16.586-28.355-26.68-47.852-26.68h-1406.2v-562.5c0-11.637-3.6094-22.988-10.332-32.488-6.7227-9.5-16.223-16.68-27.195-20.555l-956.25-337.5c-17.215-6.0742-36.309-3.418-51.211 7.125-14.902 10.543-23.762 27.664-23.762 45.918v2531.2c0 14.918 5.9258 29.227 16.477 39.773 10.547 10.551 24.855 16.477 39.773 16.477h3262.5c14.918 0 29.227-5.9258 39.773-16.477 10.551-10.547 16.477-24.855 16.477-39.773v-1237.5c0-14.918-5.9258-29.227-16.477-39.777l-112.5-112.5c-10.547-10.547-24.855-16.473-39.773-16.473h-168.75v-1237.5zm-1575 393.75v112.5h-112.5v-112.5zm-337.5 0h112.5v112.5h-112.5zm562.5 112.5h-112.5v-112.5h112.5zm787.5 1237.5v56.25h-112.5v-56.25zm-112.5 168.75h112.5v56.25h-112.5zm0 168.75h112.5v56.25h-112.5zm225-337.5h112.5v393.75h-112.5zm225 0h168.75v393.75h-168.75zm168.75-112.5h-337.5v-112.5h337.5zm-337.5-360.8-23.301 23.301h-102.59l125.89-104.91zm-675-1487.9v104.91h-125.89zm-225 41.062v-104.91h125.89zm337.5-104.91h125.89l-125.89 104.91zm337.5 104.91v-104.91h125.89zm225-41.062v104.91h-125.89zm-99.113 217.41-125.89 104.91v-104.91zm-125.89 281.25h125.89l-125.89 104.91zm0 281.25h125.89l-125.89 104.91zm0 281.25h125.89l-125.89 104.91zm0 281.25h125.89l-125.89 104.91zm225-112.5h-125.89l125.89-104.91zm0-281.25h-125.89l125.89-104.91zm0-281.25h-125.89l125.89-104.91zm0-281.25h-125.89l125.89-104.91zm211.61-281.25 125.89-104.91v104.91zm26.773-168.75-125.89 104.91v-104.91zm-383.84-281.25h65.898l79.551 79.547v89.203h-225v-89.203zm-959.82 281.25h92.77v168.75h-303.71zm641.88 168.75 125.89-104.91v104.91zm238.39 1518.8h112.5v225h-112.5zm-168.75 337.5v393.75h-112.5v-393.75zm-203.52-506.25h-1280.5l-56.25-112.5h1393zm-1371.5-747.7v522.7h-56.25c-19.496 0-37.602 10.094-47.852 26.68-10.246 16.582-11.18 37.293-2.457 54.73l106.56 213.12v830.47h-843.75v-1945.5zm506.25 2097.7h-1350v-337.5h1350zm112.5-225h225v225h-225zm225-168.75v56.25h-225v-56.25c0-14.918-5.9258-29.227-16.477-39.773-10.547-10.551-24.855-16.477-39.773-16.477h-450v-787.5h1237.5v787.5h-450c-14.918 0-29.227 5.9258-39.773 16.477-10.551 10.547-16.477 24.855-16.477 39.773zm1462.5 393.75h-1350v-337.5h1350zm-23.297-1181.2h-290.9l56.25-56.25h178.4z"/>
 </g>
</svg>
