<?xml version="1.0" encoding="UTF-8"?>
<svg width="3600pt" height="3600pt" version="1.1" viewBox="0 0 3600 3600" xmlns="http://www.w3.org/2000/svg">
 <path d="m3508.9 2481.1-416.25-1044.8c-5.3867-13.531-15.812-24.445-29.082-30.449-13.273-6-28.355-6.6172-42.074-1.7266l-453.77 162.39c-14.398 5.1641-26.074 15.969-32.336 29.922-6.2617 13.957-6.5703 29.859-0.85156 44.047l29.812 73.914-188.44 61.875c-70.086-27.113-316.86-122.68-386.38-153.96-110.81-50.008-212.4-10.293-330.19 65.137-82.969-63.449-160.65-63.898-265.89-4.4453-73.125 41.289-187.03 110.08-239.74 141.98l-88.93-50.117 40.781-85.164c6.3438-13.234 7.2656-28.422 2.5703-42.324-4.6992-13.906-14.645-25.422-27.715-32.094l-407.93-208.12c-13.316-6.8008-28.793-8.0195-43.012-3.3867-14.215 4.6328-26.004 14.738-32.754 28.078l-503.66 994.67c-6.7109 13.254-7.9023 28.625-3.3203 42.758 4.5859 14.133 14.574 25.879 27.789 32.672l428.74 220.5c13.508 6.9453 29.254 8.1328 43.648 3.293 14.398-4.8438 26.227-15.301 32.793-29l32.68-68.117 51.805 35.438h0.003907c-10.035 20.074-18.844 40.734-26.379 61.875-1.7969 5.6172-2.707 11.48-2.7031 17.379 0 141.64 145.74 219.94 207.23 246.66 9.9961 31.344 26.668 60.145 48.867 84.418 22.199 24.277 49.398 43.453 79.719 56.207 12.785 3.7734 26.047 5.668 39.375 5.625 20.508-0.25781 40.766-4.5391 59.625-12.598 19.426 42.172 51.359 77.344 91.465 100.74 35.898 19.082 77.242 25.312 117.17 17.664 24.672 44.785 62.535 80.883 108.45 103.39 16.879 6.9648 34.953 10.574 53.215 10.633 18.996-0.03125 37.793-3.8555 55.293-11.25 48.098-21.199 89.504-55.117 119.75-98.102 28.125 22.5 71.102 56.25 118.91 94.387 36.676 27.656 81.594 42.16 127.52 41.176 38.547-0.023438 76.566-8.957 111.09-26.102 25.477-12.152 48.137-29.484 66.539-50.891 18.402-21.402 32.141-46.41 40.336-73.422 46.676-0.57422 92.328-13.766 132.12-38.176 39.789-24.41 72.234-59.129 93.895-100.48 10.746 1.6172 21.59 2.4648 32.457 2.5312 53.508-0.32422 105.66-16.848 149.6-47.391 43.938-30.543 77.598-73.676 96.547-123.72 2.418 0 4.7812 0.44922 7.2578 0.44922 58.398 1.7891 115.2-19.211 158.4-58.559 29-26.574 48.773-61.703 56.449-100.28 7.6797-38.578 2.8594-78.602-13.754-114.25l90.449-40.051 32.961 81.844c5.5156 13.691 16.188 24.668 29.723 30.559 13.531 5.8945 28.836 6.2305 42.617 0.94141l445.39-170.66c13.996-5.3867 25.258-16.141 31.289-29.871 6.0312-13.73 6.332-29.301 0.82813-43.254zm-2962.6 114.97-327.6-168.75 452.93-894.38 308.81 157.5zm244.74 155.93h0.003906c16.879-41.941 38.59-81.77 64.688-118.69 10.488-8.2617 23.203-13.211 36.52-14.215 13.316-1 26.629 1.9883 38.234 8.5898 9.2969 2.7812 16.945 9.4336 20.996 18.25 4.0469 8.8203 4.1055 18.953 0.15625 27.82-21.488 69.188-43.258 144-57.938 195.19-45.227-25.312-97.203-66.32-102.66-116.95zm255.15 270.73c-21.43-6.3555-42.414-40.051-54.676-69.523 41.77-70.727 87.461-139.07 136.86-204.7 11.25-14.941 27.5-25.34 45.781-29.285 18.281-3.9453 37.375-1.1758 53.781 7.7969 22.5 15.582 9.8984 46.574-4.6133 69.863-0.44922 0.73047-0.44922 1.5742-0.84375 2.3047-0.39453 0.73047-2.082 2.9258-2.8125 4.5547-9.8984 22.5-74.418 126.23-120.04 197.61-14.453 11.816-36.559 26.441-53.434 21.379zm266.06 106.31c-17.781 6.418-37.43 5.1367-54.227-3.543-26.605-18.645-45.988-45.875-54.898-77.117 33.074-52.086 104.51-165.54 119.14-198.45v-0.003906c6.4297-7.2578 15.176-12.07 24.75-13.609 22.035-3.8242 44.652 1.9023 62.215 15.75 11.34 7.4883 19.801 18.605 24 31.535 4.2031 12.926 3.8906 26.895-0.88281 39.621zm182.64 111.88c-29.137 12.32-60.805-30.488-78.75-60.414l113.79-155.42c24.191-0.6875 47.621 8.4922 64.914 25.426 11.16 21.691 13.184 46.949 5.625 70.145-18.953 51.805-56.539 94.684-105.41 120.26zm1218.3-454.11h-0.003906c-33.234 24.586-75.988 32.375-115.76 21.094-0.50781 0-0.89844-0.44922-1.4062-0.50781-0.50781-0.054688-0.44922 0-0.67578 0-5.332-1.5625-10.422-3.8555-15.129-6.8047-33.188-22.105-206.61-188.89-308.14-288.79-10.445-11.305-25.066-17.836-40.453-18.074-15.391-0.23438-30.203 5.8438-40.992 16.824-10.785 10.977-16.602 25.898-16.094 41.277 0.50781 15.383 7.3008 29.887 18.789 40.129 45 44.438 272.81 267.7 324.62 302.23-17.383 37.484-49.105 66.41-88.031 80.27-32.832 14.438-70.648 11.895-101.25-6.8047-72.789-64.688-270.34-262.12-272.3-264.09-14.289-13.801-34.797-19.043-53.953-13.789-19.156 5.25-34.121 20.219-39.375 39.375-5.25 19.156-0.011719 39.664 13.789 53.949 7.9297 7.9883 190.46 190.35 270 262.18v0.003906c-19.793 34.809-52.996 59.977-91.855 69.637-27.156 9.2305-56.957 6.4688-81.957-7.5938l-199.97-199.8-79.594 79.312 199.8 199.86c6.3711 6.1133 13.367 11.543 20.867 16.199-8.5234 23.203-25.988 42.023-48.488 52.258-37.047 20.027-81.887 19.148-118.12-2.3047-59.176-47.363-111.09-88.312-136.69-108.39 7.6758-26.969 9.4297-55.273 5.1484-82.98-4.2812-27.707-14.5-54.164-29.953-77.559-16.676-20.918-37.648-38.012-61.504-50.121-23.852-12.113-50.031-18.961-76.758-20.078 2.5742-30.039-2.9922-60.219-16.117-87.359-13.125-27.145-33.324-50.246-58.473-66.879-35.707-25.617-79.004-38.457-122.91-36.449-7.1016-35.906-27.93-67.629-58.047-88.426-34.504-21.699-75.055-31.773-115.7-28.734-40.648 3.0352-79.25 19.023-110.14 45.609-1.6328-26.668-10.535-52.379-25.746-74.344-15.215-21.965-36.152-39.344-60.543-50.25-35.148-18.691-75.613-24.863-114.74-17.504-39.121 7.3633-74.578 27.816-100.53 58.004l-60.242-41.23 311.4-649.63 111.15 62.605 0.003906 0.003906c8.7148 4.918 18.586 7.4219 28.59 7.2539 10.008-0.16797 19.789-3.0039 28.332-8.2109 1.6875-1.0117 170.95-104.23 264.77-157.22 47.023-26.605 76.895-35.383 106.88-24.863-82.852 62.887-138.57 155.04-155.75 257.62-24.805 98.887-18.957 167.68 18.227 216.56h-0.003906c32.832 37.016 77.746 61.156 126.73 68.117 45.035 9.3906 91.922-1.5586 128.14-29.922 50.852-37.273 86.289-91.883 99.617-153.51l59.062-38.699c170.3 94.688 347.75 175.92 530.72 242.94 52.367 50.289 290.08 279.05 348.36 344.36l0.33594 0.39453h0.003906c18.5 14.859 29.449 37.172 29.883 60.898 0.4375 23.727-9.6875 46.422-27.633 61.953zm53.551-227.64c-96.469-100.46-326.25-320.62-337.05-330.98h-0.003906c-6.8945-6.625-15.379-11.371-24.637-13.781-166.05-43.539-545.34-250.93-549.17-253.12-8.9297-4.8867-19.023-7.2617-29.195-6.8633-10.176 0.39453-20.051 3.5469-28.574 9.1133l-108.23 70.762h0.003906c-14.445 9.4453-23.758 24.996-25.258 42.188-4.3711 39.867-24.984 76.172-56.98 100.35-10.848 9.5781-25.453 13.719-39.715 11.25-22.207-2.5547-43.168-11.613-60.242-26.043-8.1562-10.688-18.789-40.668 1.293-121.16 37.125-148.45 86.457-180 184.78-242.27l24.188-15.414c122.34-78.75 175.16-80.945 225.39-58.445 83.699 37.633 397.46 158.4 410.62 163.52v0.003906c12.078 4.6445 25.391 4.9805 37.688 0.95703l214.59-70.367 277.48 688.33zm275.62 41.117-381.83-947.59 347.46-124.37 375.07 941.46zm-1484.9-1865.1v-43.762c0.058594-43.957 17.551-86.094 48.637-117.17 31.09-31.074 73.23-48.555 117.19-48.598h20.363v-31.332c0-20.094 10.723-38.664 28.125-48.715 17.402-10.047 38.848-10.047 56.25 0 17.402 10.051 28.125 28.621 28.125 48.715v31.332h20.363c38.117 0.042969 74.664 15.195 101.63 42.133 26.973 26.938 42.164 63.469 42.254 101.59 0 20.098-10.723 38.664-28.125 48.715-17.402 10.047-38.848 10.047-56.25 0-17.402-10.051-28.125-28.617-28.125-48.715-0.015625-8.3164-3.3281-16.285-9.2148-22.156-5.8828-5.875-13.859-9.1758-22.172-9.1758h-153.23c-14.129 0.015625-27.676 5.6289-37.668 15.617-9.9961 9.9844-15.625 23.523-15.656 37.652v43.762c0.03125 14.129 5.6602 27.668 15.656 37.656 9.9922 9.9844 23.539 15.598 37.668 15.613h153.23c43.945 0.042969 86.082 17.516 117.17 48.578 31.082 31.066 48.582 73.188 48.656 117.13v43.82c-0.058594 43.949-17.555 86.082-48.641 117.15-31.09 31.07-73.234 48.535-117.18 48.562h-20.363v31.391c0 20.094-10.723 38.664-28.125 48.711-17.402 10.051-38.848 10.051-56.25 0-17.402-10.047-28.125-28.617-28.125-48.711v-31.387h-20.363v-0.003906c-38.141-0.027344-74.715-15.191-101.69-42.156-26.977-26.965-42.152-63.531-42.195-101.67 0-20.098 10.723-38.668 28.125-48.715s38.848-10.047 56.25 0 28.125 28.617 28.125 48.715c0.015625 8.3125 3.3281 16.281 9.2148 22.156 5.8828 5.875 13.859 9.1719 22.172 9.1719h153.23c14.121 0 27.668-5.6016 37.664-15.578 10-9.9766 15.629-23.508 15.66-37.633v-43.82c-0.03125-14.121-5.6602-27.656-15.66-37.633-9.9961-9.9766-23.543-15.578-37.664-15.578h-153.23c-43.938-0.042969-86.062-17.508-117.14-48.559-31.086-31.051-48.59-73.16-48.68-117.1zm242.44 736.48c166.28 0 325.75-66.055 443.33-183.63s183.63-277.05 183.63-443.33-66.055-325.75-183.63-443.33c-117.58-117.58-277.05-183.63-443.33-183.63s-325.75 66.055-443.33 183.63c-117.58 117.58-183.63 277.05-183.63 443.33 0.19141 166.22 66.309 325.58 183.84 443.11 117.54 117.54 276.89 183.66 443.12 183.85zm0-1141.4c136.45 0 267.3 54.203 363.78 150.68s150.68 227.34 150.68 363.78c0 136.44-54.199 267.3-150.68 363.78s-227.34 150.68-363.78 150.68-267.3-54.203-363.78-150.68-150.68-227.34-150.68-363.78c0.16406-136.39 54.418-267.16 150.86-363.6 96.445-96.441 227.2-150.7 363.6-150.86z" fill="#394046"/>
</svg>
