<svg width="197" height="187" viewBox="0 0 197 187" fill="none" xmlns="http://www.w3.org/2000/svg">
<path d="M174.735 164.469C154.956 164.469 135.286 164.469 115.452 164.469C115.452 143.493 115.452 122.602 115.452 101.541C117.743 101.541 119.953 101.541 122.518 101.541C122.518 103.628 122.518 105.742 122.518 108.082C126.664 108.082 130.511 108.082 134.685 108.082C134.685 100.301 134.685 92.5757 134.685 84.7378C136.404 84.7378 137.795 84.7378 139.296 84.7378C139.405 85.5554 139.542 86.2039 139.542 86.8805C139.569 91.5889 139.023 91.1378 143.961 91.166C146.226 91.166 148.49 91.166 151.082 91.166C151.191 88.9669 151.273 86.9651 151.409 84.2021C153.155 84.7096 155.31 84.7096 155.883 85.6964C156.647 86.9933 156.211 89.0797 156.293 91.1378C159.703 91.1378 162.922 91.2224 166.114 91.0532C166.605 91.025 167.369 90.01 167.478 89.3898C167.696 87.9519 167.533 86.4858 167.533 84.7942C170.043 84.7942 172.252 84.7942 174.708 84.7942C174.735 111.381 174.735 137.855 174.735 164.469ZM122.79 125.196C126.937 125.196 130.757 125.196 134.549 125.196C134.549 121.164 134.549 117.358 134.549 113.439C130.566 113.439 126.746 113.439 122.79 113.439C122.79 117.442 122.79 121.22 122.79 125.196ZM122.845 130.553C122.845 134.584 122.845 138.447 122.845 142.366C126.855 142.366 130.675 142.366 134.467 142.366C134.467 138.278 134.467 134.443 134.467 130.553C130.484 130.553 126.719 130.553 122.845 130.553ZM122.79 159.451C126.965 159.451 130.757 159.451 134.549 159.451C134.549 155.419 134.549 151.613 134.549 147.722C130.539 147.722 126.719 147.722 122.79 147.722C122.79 151.726 122.79 155.532 122.79 159.451ZM139.623 96.2972C139.623 99.9624 139.569 103.458 139.678 106.954C139.705 107.434 140.578 108.223 141.097 108.251C144.37 108.364 147.671 108.308 151.082 108.308C151.082 104.107 151.082 100.273 151.082 96.2972C147.262 96.2972 143.606 96.2972 139.623 96.2972ZM139.623 125.28C143.634 125.28 147.29 125.28 151.109 125.28C151.109 121.277 151.109 117.442 151.109 113.27C147.671 113.27 144.37 113.213 141.097 113.326C140.605 113.354 139.732 114.172 139.705 114.651C139.569 118.119 139.623 121.615 139.623 125.28ZM139.814 130.553C139.814 134.584 139.814 138.419 139.814 142.394C143.688 142.394 147.317 142.394 151.082 142.394C151.082 138.362 151.082 134.528 151.082 130.553C147.262 130.553 143.607 130.553 139.814 130.553ZM151.136 147.751C147.371 147.751 143.661 147.751 139.842 147.751C139.842 151.754 139.842 155.617 139.842 159.536C143.716 159.536 147.371 159.536 151.136 159.536C151.136 155.645 151.136 151.952 151.136 147.751ZM167.396 108.139C167.396 104.107 167.396 100.273 167.396 96.269C163.659 96.269 160.112 96.269 156.374 96.269C156.374 100.273 156.374 104.135 156.374 108.139C160.112 108.139 163.659 108.139 167.396 108.139ZM156.374 113.411C156.374 117.414 156.374 121.249 156.374 125.28C160.085 125.28 163.631 125.28 167.369 125.28C167.369 121.305 167.369 117.442 167.369 113.411C163.659 113.411 160.112 113.411 156.374 113.411ZM167.369 142.394C167.369 138.39 167.369 134.528 167.369 130.524C163.631 130.524 160.085 130.524 156.374 130.524C156.374 134.556 156.374 138.39 156.374 142.394C160.139 142.394 163.659 142.394 167.369 142.394ZM156.429 147.779C156.429 151.782 156.429 155.645 156.429 159.507C160.221 159.507 163.74 159.507 167.287 159.507C167.287 155.532 167.287 151.782 167.287 148.004C163.768 147.92 160.221 147.835 156.429 147.779Z" fill="#3A4147"/>
<path d="M73.7921 43.1242C73.7921 78.761 73.7921 113.834 73.7921 148.033C78.2391 150.147 82.2495 152.008 86.2054 154.01C86.7783 154.292 87.2966 155.335 87.3239 156.068C87.4603 159 87.3785 161.932 87.3785 165.118C75.1835 165.118 63.1522 165.118 50.739 165.118C50.739 161.904 50.7117 158.69 50.7663 155.504C50.7663 155.025 51.2028 154.348 51.612 154.151C55.6497 152.121 59.742 150.176 64.2981 147.948C64.2981 113.806 64.2981 78.6764 64.2981 43.1524C54.8858 43.1524 45.61 43.1524 36.416 43.1524C35.352 37.4573 36.2796 36.3577 41.4359 36.1322C42.8818 36.0758 44.4369 35.6247 45.6919 34.8634C51.0391 31.6776 56.3591 28.3789 61.5426 24.9393C63.0158 23.9807 64.0525 22.3455 65.3075 20.9922C65.1165 20.7102 64.9255 20.4001 64.7346 20.1182C67.1899 20.1182 69.6453 20.1182 72.1007 20.1182C72.4826 20.1182 73.1101 20.1182 73.1647 20.3155C74.4742 23.7551 77.8026 23.2195 80.3125 24.0371C91.198 27.5613 102.165 30.719 113.051 34.2432C117.389 35.6529 121.672 36.4423 126.201 36.2167C129.038 36.0758 131.902 36.1886 134.767 36.1886C139.978 36.1886 140.851 37.2881 139.896 43.1242C118.016 43.1242 95.9996 43.1242 73.7921 43.1242ZM73.874 24.2344C73.874 27.0538 73.874 29.5348 73.874 32.0441C75.4018 32.185 76.684 32.2696 77.9663 32.3824C78.13 33.7357 78.2664 34.8634 78.4028 35.9066C89.2064 35.9066 99.7917 35.9066 110.377 35.9066C110.404 35.7656 110.404 35.5965 110.432 35.4555C98.3458 31.7621 86.2872 28.0406 73.874 24.2344ZM64.2981 25.6441C58.7871 29.0837 53.7127 32.2696 48.611 35.4555C48.6656 35.6247 48.7201 35.7938 48.7747 35.963C52.4032 35.963 56.0317 35.963 59.7693 35.963C59.9057 34.7507 60.0148 33.5947 60.1239 32.3824C61.5699 32.2696 62.8521 32.1569 64.2981 32.0441C64.2981 29.9859 64.2981 28.0688 64.2981 25.6441Z" fill="#3A4147"/>
<path d="M36.2251 45.4639C41.5723 45.4639 46.8104 45.4639 52.2123 45.4639C52.2123 48.9881 52.2123 52.3713 52.2123 56.0083C46.9469 56.0083 41.6815 56.0083 36.2251 56.0083C36.2251 52.5405 36.2251 49.1008 36.2251 45.4639Z" fill="#3A4147"/>
<path d="M130.62 45.0127C130.62 48.7625 130.484 52.5122 130.702 56.2338C130.756 57.3333 131.575 59.0249 132.421 59.3633C136.513 60.9139 137.822 63.7615 137.113 67.9905C136.922 69.231 137.086 70.5279 137.086 72.0504C132.393 72.0504 127.919 72.0504 123.063 72.0504C123.063 69.0337 122.845 66.1015 123.199 63.2258C123.309 62.239 124.782 61.1113 125.846 60.632C128.765 59.3633 130.02 57.5025 129.638 54.1192C129.311 51.1307 129.556 48.0576 129.556 45.0127C129.938 45.0127 130.265 45.0127 130.62 45.0127Z" fill="#3A4147"/>
</svg>
