<?xml version="1.0" encoding="utf-8"?>
<!-- Generator: Adobe Illustrator 26.0.3, SVG Export Plug-In . SVG Version: 6.00 Build 0)  -->
<svg version="1.1" id="Layer_1" xmlns="http://www.w3.org/2000/svg" xmlns:xlink="http://www.w3.org/1999/xlink" x="0px" y="0px"
	 viewBox="0 0 684 650" style="enable-background:new 0 0 684 650;" xml:space="preserve">
<style type="text/css">
	.st0{fill-rule:evenodd;clip-rule:evenodd;fill:#3A4147;}
	.st1{fill:#3A4147;}
</style>
<g>
	<path class="st1" d="M596.2,579.8c-72.5,0-144.6,0-217.3,0c0-74.4,0-148.5,0-223.2c8.4,0,16.5,0,25.9,0c0,7.4,0,14.9,0,23.2
		c15.2,0,29.3,0,44.6,0c0-27.6,0-55,0-82.8c6.3,0,11.4,0,16.9,0c0.4,2.9,0.9,5.2,0.9,7.6c0.1,16.7-1.9,15.1,16.2,15.2
		c8.3,0,16.6,0,26.1,0c0.4-7.8,0.7-14.9,1.2-24.7c6.4,1.8,14.3,1.8,16.4,5.3c2.8,4.6,1.2,12,1.5,19.3c12.5,0,24.3,0.3,36-0.3
		c1.8-0.1,4.6-3.7,5-5.9c0.8-5.1,0.2-10.3,0.2-16.3c9.2,0,17.3,0,26.3,0C596.2,391.5,596.2,485.4,596.2,579.8z M405.8,440.5
		c15.2,0,29.2,0,43.1,0c0-14.3,0-27.8,0-41.7c-14.6,0-28.6,0-43.1,0C405.8,413,405.8,426.4,405.8,440.5z M406,459.5
		c0,14.3,0,28,0,41.9c14.7,0,28.7,0,42.6,0c0-14.5,0-28.1,0-41.9C434,459.5,420.2,459.5,406,459.5z M405.8,562c15.3,0,29.2,0,43.1,0
		c0-14.3,0-27.8,0-41.6c-14.7,0-28.7,0-43.1,0C405.8,534.6,405.8,548.1,405.8,562z M467.5,338c0,13-0.2,25.4,0.2,37.8
		c0.1,1.7,3.3,4.5,5.2,4.6c12,0.4,24.1,0.2,36.6,0.2c0-14.9,0-28.5,0-42.6C495.5,338,482.1,338,467.5,338z M467.5,440.8
		c14.7,0,28.1,0,42.1,0c0-14.2,0-27.8,0-42.6c-12.6,0-24.7-0.2-36.7,0.2c-1.8,0.1-5,3-5.1,4.7C467.3,415.4,467.5,427.8,467.5,440.8z
		 M468.2,459.5c0,14.3,0,27.9,0,42c14.2,0,27.5,0,41.3,0c0-14.3,0-27.9,0-42C495.5,459.5,482.1,459.5,468.2,459.5z M509.7,520.5
		c-13.8,0-27.4,0-41.4,0c0,14.2,0,27.9,0,41.8c14.2,0,27.6,0,41.4,0C509.7,548.5,509.7,535.4,509.7,520.5z M569.3,380
		c0-14.3,0-27.9,0-42.1c-13.7,0-26.7,0-40.4,0c0,14.2,0,27.9,0,42.1C542.6,380,555.6,380,569.3,380z M528.9,398.7
		c0,14.2,0,27.8,0,42.1c13.6,0,26.6,0,40.3,0c0-14.1,0-27.8,0-42.1C555.6,398.7,542.6,398.7,528.9,398.7z M569.2,501.5
		c0-14.2,0-27.9,0-42.1c-13.7,0-26.7,0-40.3,0c0,14.3,0,27.9,0,42.1C542.7,501.5,555.6,501.5,569.2,501.5z M529.1,520.6
		c0,14.2,0,27.9,0,41.6c13.9,0,26.8,0,39.8,0c0-14.1,0-27.4,0-40.8C556,521.1,543,520.8,529.1,520.6z"/>
	<path class="st1" d="M226.2,149.4c0,126.4,0,250.8,0,372.1c16.3,7.5,31,14.1,45.5,21.2c2.1,1,4,4.7,4.1,7.3
		c0.5,10.4,0.2,20.8,0.2,32.1c-44.7,0-88.8,0-134.3,0c0-11.4-0.1-22.8,0.1-34.1c0-1.7,1.6-4.1,3.1-4.8c14.8-7.2,29.8-14.1,46.5-22
		c0-121.1,0-245.7,0-371.7c-34.5,0-68.5,0-102.2,0c-3.9-20.2-0.5-24.1,18.4-24.9c5.3-0.2,11-1.8,15.6-4.5
		c19.6-11.3,39.1-23,58.1-35.2c5.4-3.4,9.2-9.2,13.8-14c-0.7-1-1.4-2.1-2.1-3.1c9,0,18,0,27,0c1.4,0,3.7,0,3.9,0.7
		c4.8,12.2,17,10.3,26.2,13.2c39.9,12.5,80.1,23.7,120,36.2c15.9,5,31.6,7.8,48.2,7c10.4-0.5,20.9-0.1,31.4-0.1
		c19.1,0,22.3,3.9,18.8,24.6C388.3,149.4,307.6,149.4,226.2,149.4z M226.5,82.4c0,10,0,18.8,0,27.7c5.6,0.5,10.3,0.8,15,1.2
		c0.6,4.8,1.1,8.8,1.6,12.5c39.6,0,78.4,0,117.2,0c0.1-0.5,0.1-1.1,0.2-1.6C316.2,109.1,272,95.9,226.5,82.4z M191.4,87.4
		c-20.2,12.2-38.8,23.5-57.5,34.8c0.2,0.6,0.4,1.2,0.6,1.8c13.3,0,26.6,0,40.3,0c0.5-4.3,0.9-8.4,1.3-12.7c5.3-0.4,10-0.8,15.3-1.2
		C191.4,102.8,191.4,96,191.4,87.4z"/>
	<path class="st1" d="M88.5,157.7c19.6,0,38.8,0,58.6,0c0,12.5,0,24.5,0,37.4c-19.3,0-38.6,0-58.6,0
		C88.5,182.8,88.5,170.6,88.5,157.7z"/>
	<path class="st1" d="M434.5,156.1c0,13.3-0.5,26.6,0.3,39.8c0.2,3.9,3.2,9.9,6.3,11.1c15,5.5,19.8,15.6,17.2,30.6
		c-0.7,4.4-0.1,9-0.1,14.4c-17.2,0-33.6,0-51.4,0c0-10.7-0.8-21.1,0.5-31.3c0.4-3.5,5.8-7.5,9.7-9.2c10.7-4.5,15.3-11.1,13.9-23.1
		c-1.2-10.6-0.3-21.5-0.3-32.3C432,156.1,433.2,156.1,434.5,156.1z"/>
</g>
</svg>
