<svg width="196" height="188" viewBox="0 0 196 188" fill="none" xmlns="http://www.w3.org/2000/svg">
<path d="M140.249 160.068C144.306 160.068 147.563 160.068 151.019 160.068C151.019 161.809 151.019 163.24 151.019 165.009C115.795 165.009 80.5139 165.009 44.9185 165.009C44.9185 163.577 44.9185 162.061 44.9185 160.04C49.4607 160.04 54.0316 160.04 58.9167 160.04C58.9167 119.075 58.9167 78.5872 58.9167 37.7627C86.0847 37.7627 112.91 37.7627 140.249 37.7627C140.249 78.2503 140.249 118.85 140.249 160.068ZM84.6563 145.889C84.6563 150.774 84.6563 155.238 84.6563 159.703C93.7123 159.703 102.483 159.703 111.11 159.703C111.11 154.902 111.11 150.409 111.11 145.889C102.168 145.889 93.6265 145.889 84.6563 145.889ZM66.5157 48.2636C66.5157 51.9698 66.5157 55.1707 66.5157 58.4557C70.1153 58.4557 73.4577 58.4557 76.8001 58.4557C76.8001 54.8899 76.8001 51.5768 76.8001 48.2636C73.2577 48.2636 70.001 48.2636 66.5157 48.2636ZM94.9978 58.568C94.9978 54.8899 94.9978 51.6891 94.9978 48.3479C91.4268 48.3479 88.0844 48.3479 84.6563 48.3479C84.6563 51.9137 84.6563 55.1987 84.6563 58.568C88.1987 58.568 91.4554 58.568 94.9978 58.568ZM104.425 58.3996C108.225 58.3996 111.567 58.3996 114.881 58.3996C114.881 54.8618 114.881 51.6891 114.881 48.3198C111.31 48.3198 107.939 48.3198 104.425 48.3198C104.425 51.7733 104.425 54.9741 104.425 58.3996ZM122.68 48.2356C122.68 51.9979 122.68 55.3111 122.68 58.5119C126.28 58.5119 129.536 58.5119 132.879 58.5119C132.879 54.9741 132.879 51.6891 132.879 48.2356C129.365 48.2356 126.108 48.2356 122.68 48.2356ZM66.4871 78.0257C70.2581 78.0257 73.5148 78.0257 76.8287 78.0257C76.8287 74.4879 76.8287 71.1748 76.8287 67.9459C73.172 67.9459 69.8296 67.9459 66.4871 67.9459C66.4871 71.4555 66.4871 74.6564 66.4871 78.0257ZM84.5706 78.0257C88.3415 78.0257 91.5982 78.0257 94.9121 78.0257C94.9121 74.4879 94.9121 71.1748 94.9121 67.9459C91.2554 67.9459 87.913 67.9459 84.5706 67.9459C84.5706 71.4555 84.5706 74.6564 84.5706 78.0257ZM114.91 67.9459C111.167 67.9459 107.825 67.9459 104.625 67.9459C104.625 71.5679 104.625 74.8529 104.625 78.0537C108.253 78.0537 111.481 78.0537 114.91 78.0537C114.91 74.6002 114.91 71.3994 114.91 67.9459ZM122.537 67.7774C122.537 71.4555 122.537 74.6564 122.537 77.9976C126.108 77.9976 129.451 77.9976 132.879 77.9976C132.879 74.4317 132.879 71.1467 132.879 67.7774C129.336 67.7774 126.08 67.7774 122.537 67.7774ZM66.5443 87.3754C66.5443 91.0816 66.5443 94.2825 66.5443 97.5394C70.1438 97.5394 73.5148 97.5394 76.8001 97.5394C76.8001 93.9455 76.8001 90.6605 76.8001 87.3754C73.2291 87.3754 69.9724 87.3754 66.5443 87.3754ZM84.542 97.4833C88.3415 97.4833 91.6839 97.4833 94.9978 97.4833C94.9978 93.9455 94.9978 90.7728 94.9978 87.4316C91.4268 87.4316 88.0558 87.4316 84.542 87.4316C84.542 90.857 84.542 94.0578 84.542 97.4833ZM104.454 97.5956C108.225 97.5956 111.481 97.5956 114.824 97.5956C114.824 94.0578 114.824 90.7728 114.824 87.4877C111.196 87.4877 107.825 87.4877 104.454 87.4877C104.454 90.9693 104.454 94.1701 104.454 97.5956ZM132.936 97.6237C132.936 93.9174 132.936 90.7166 132.936 87.4596C129.336 87.4596 125.965 87.4596 122.68 87.4596C122.68 91.0536 122.68 94.3386 122.68 97.6237C126.222 97.6237 129.479 97.6237 132.936 97.6237ZM66.5157 115.34C70.0867 115.34 73.4291 115.34 76.8573 115.34C76.8573 111.775 76.8573 108.49 76.8573 105.261C73.2006 105.261 69.8581 105.261 66.5157 105.261C66.5157 108.77 66.5157 111.971 66.5157 115.34ZM84.6848 105.12C84.6848 108.742 84.6848 112.027 84.6848 115.228C88.3415 115.228 91.7125 115.228 94.9978 115.228C94.9978 111.69 94.9978 108.49 94.9978 105.12C91.5125 105.12 88.2558 105.12 84.6848 105.12ZM114.852 115.397C114.852 111.69 114.852 108.49 114.852 105.205C111.253 105.205 107.91 105.205 104.568 105.205C104.568 108.77 104.568 112.084 104.568 115.397C108.139 115.397 111.367 115.397 114.852 115.397ZM132.936 115.369C132.936 111.662 132.936 108.462 132.936 105.205C129.336 105.205 125.965 105.205 122.68 105.205C122.68 108.798 122.68 112.084 122.68 115.369C126.222 115.369 129.479 115.369 132.936 115.369ZM66.5443 124.662C66.5443 128.368 66.5443 131.569 66.5443 134.826C70.1438 134.826 73.5148 134.826 76.8001 134.826C76.8001 131.232 76.8001 127.947 76.8001 124.662C73.2291 124.662 69.9724 124.662 66.5443 124.662ZM84.542 134.798C88.2844 134.798 91.6268 134.798 94.8264 134.798C94.8264 131.176 94.8264 127.891 94.8264 124.69C91.1983 124.69 87.9701 124.69 84.542 124.69C84.542 128.144 84.542 131.345 84.542 134.798ZM114.71 135.051C114.71 131.625 114.71 128.228 114.71 124.774C111.196 124.774 107.853 124.774 104.568 124.774C104.568 128.368 104.568 131.682 104.568 135.051C108.082 135.051 111.196 135.051 114.71 135.051ZM132.936 134.91C132.936 131.204 132.936 128.003 132.936 124.746C129.336 124.746 125.965 124.746 122.68 124.746C122.68 128.34 122.68 131.625 122.68 134.91C126.222 134.91 129.479 134.91 132.936 134.91Z" fill="#3A4147"/>
<path d="M132.821 35.4607C110.024 35.4607 87.4844 35.4607 64.7158 35.4607C64.7158 33.2707 64.7158 31.2491 64.7158 28.8906C87.2273 28.8906 109.853 28.8906 132.821 28.8906C132.821 30.828 132.821 32.9618 132.821 35.4607Z" fill="#3A4147"/>
<path d="M79.1997 19.8496C92.2266 19.8496 105.111 19.8496 118.366 19.8496C118.366 21.9273 118.366 24.0331 118.366 26.4478C105.482 26.4478 92.4837 26.4478 79.1997 26.4478C79.1997 24.2858 79.1997 22.18 79.1997 19.8496Z" fill="#3A4147"/>
</svg>
