<?xml version="1.0" encoding="utf-8"?>
<!-- Generator: Adobe Illustrator 26.0.3, SVG Export Plug-In . SVG Version: 6.00 Build 0)  -->
<svg version="1.1" id="Layer_1" xmlns="http://www.w3.org/2000/svg" xmlns:xlink="http://www.w3.org/1999/xlink" x="0px" y="0px"
	 viewBox="0 0 684 650" style="enable-background:new 0 0 684 650;" xml:space="preserve">
<style type="text/css">
	.st0{fill-rule:evenodd;clip-rule:evenodd;fill:#3A4147;}
	.st1{fill:#3A4147;}
</style>
<g>
	<path class="st1" d="M490,565.9c14.2,0,25.6,0,37.7,0c0,6.2,0,11.3,0,17.6c-123.3,0-246.8,0-371.4,0c0-5.1,0-10.5,0-17.7
		c15.9,0,31.9,0,49,0c0-145.9,0-290.1,0-435.5c95.1,0,189,0,284.7,0C490,274.5,490,419.1,490,565.9z M295.4,515.4
		c0,17.4,0,33.3,0,49.2c31.7,0,62.4,0,92.6,0c0-17.1,0-33.1,0-49.2C356.7,515.4,326.8,515.4,295.4,515.4z M231.9,167.7
		c0,13.2,0,24.6,0,36.3c12.6,0,24.3,0,36,0c0-12.7,0-24.5,0-36.3C255.5,167.7,244.1,167.7,231.9,167.7z M331.6,204.4
		c0-13.1,0-24.5,0-36.4c-12.5,0-24.2,0-36.2,0c0,12.7,0,24.4,0,36.4C307.8,204.4,319.2,204.4,331.6,204.4z M364.6,203.8
		c13.3,0,25,0,36.6,0c0-12.6,0-23.9,0-35.9c-12.5,0-24.3,0-36.6,0C364.6,180.2,364.6,191.6,364.6,203.8z M428.5,167.6
		c0,13.4,0,25.2,0,36.6c12.6,0,24,0,35.7,0c0-12.6,0-24.3,0-36.6C451.9,167.6,440.5,167.6,428.5,167.6z M231.8,273.7
		c13.2,0,24.6,0,36.2,0c0-12.6,0-24.4,0-35.9c-12.8,0-24.5,0-36.2,0C231.8,250.3,231.8,261.7,231.8,273.7z M295.1,273.7
		c13.2,0,24.6,0,36.2,0c0-12.6,0-24.4,0-35.9c-12.8,0-24.5,0-36.2,0C295.1,250.3,295.1,261.7,295.1,273.7z M401.3,237.8
		c-13.1,0-24.8,0-36,0c0,12.9,0,24.6,0,36c12.7,0,24,0,36,0C401.3,261.5,401.3,250.1,401.3,237.8z M428,237.2c0,13.1,0,24.5,0,36.4
		c12.5,0,24.2,0,36.2,0c0-12.7,0-24.4,0-36.4C451.8,237.2,440.4,237.2,428,237.2z M232,307c0,13.2,0,24.6,0,36.2
		c12.6,0,24.4,0,35.9,0c0-12.8,0-24.5,0-36.2C255.4,307,244,307,232,307z M295,343c13.3,0,25,0,36.6,0c0-12.6,0-23.9,0-35.8
		c-12.5,0-24.3,0-36.6,0C295,319.4,295,330.8,295,343z M364.7,343.4c13.2,0,24.6,0,36.3,0c0-12.6,0-24.3,0-36c-12.7,0-24.5,0-36.3,0
		C364.7,319.8,364.7,331.2,364.7,343.4z M464.4,343.5c0-13.2,0-24.6,0-36.2c-12.6,0-24.4,0-35.9,0c0,12.8,0,24.5,0,36.2
		C440.9,343.5,452.3,343.5,464.4,343.5z M231.9,406.6c12.5,0,24.2,0,36.2,0c0-12.7,0-24.4,0-35.9c-12.8,0-24.5,0-36.2,0
		C231.9,383.2,231.9,394.6,231.9,406.6z M295.5,370.2c0,12.9,0,24.6,0,36c12.8,0,24.6,0,36.1,0c0-12.6,0-24,0-36
		C319.4,370.2,308,370.2,295.5,370.2z M401.1,406.8c0-13.2,0-24.6,0-36.3c-12.6,0-24.3,0-36,0c0,12.7,0,24.5,0,36.3
		C377.6,406.8,388.9,406.8,401.1,406.8z M464.4,406.7c0-13.2,0-24.6,0-36.2c-12.6,0-24.4,0-35.9,0c0,12.8,0,24.5,0,36.2
		C440.9,406.7,452.3,406.7,464.4,406.7z M232,439.8c0,13.2,0,24.6,0,36.2c12.6,0,24.4,0,35.9,0c0-12.8,0-24.5,0-36.2
		C255.4,439.8,244,439.8,232,439.8z M295,475.9c13.1,0,24.8,0,36,0c0-12.9,0-24.6,0-36c-12.7,0-24,0-36,0
		C295,452.2,295,463.6,295,475.9z M400.6,476.8c0-12.2,0-24.3,0-36.6c-12.3,0-24,0-35.5,0c0,12.8,0,24.6,0,36.6
		C377.4,476.8,388.3,476.8,400.6,476.8z M464.4,476.3c0-13.2,0-24.6,0-36.2c-12.6,0-24.4,0-35.9,0c0,12.8,0,24.5,0,36.2
		C440.9,476.3,452.3,476.3,464.4,476.3z"/>
	<path class="st1" d="M464,122.1c-79.8,0-158.7,0-238.4,0c0-7.8,0-15,0-23.4c78.8,0,158,0,238.4,0C464,105.6,464,113.2,464,122.1z"
		/>
	<path class="st1" d="M276.3,66.5c45.6,0,90.7,0,137.1,0c0,7.4,0,14.9,0,23.5c-45.1,0-90.6,0-137.1,0
		C276.3,82.3,276.3,74.8,276.3,66.5z"/>
</g>
</svg>
