<!-- Copyright Unitedthemes   -->
<svg id="{{SVG_ID}}" xmlns="http://www.w3.org/2000/svg" viewBox="0 0 612 218" preserveAspectRatio="none">
    {{SVG_STYLE_ID}}
    {{SVG_DEF_ID}}    
    <path {{SVG_FILL_2_ID}} class="{{SVG_PATH_2_CLASS}} bklyn-section-separator-path-fill" d="M611.1,130.3c-3.2,3.1-6.4,6.2-9.6,9.2C580.6,158.7,557,173.1,530,182c-13.9,4.6-28.1,7.6-42.6,9.1
			c-8.1,0.9-16.2,1.3-24.4,1.3c-6.5,0-13,0-19.4,0c-24.6-0.2-49-2.5-73-7.9c-20.5-4.6-40.1-11.9-59.1-20.8
			C272.4,145.3,234.2,125,197,103c-28.4-16.8-57.9-31.1-88.3-43.9c-18.5-7.8-37.6-13.2-57.3-16.5c-16.3-2.8-32.7-4.5-49.2-5.7
			c-0.7-0.1-1.4-0.2-2.2-0.3c0-7,0-14,0-21c8.7-2.8,17.4-5.4,26.3-7.3c12.6-2.8,25.3-4.6,38.3-4.8c12.5-0.2,25-0.5,37.5-0.3
			C123,3.6,143.3,7.7,163,14.5c5.2,1.8,10.4,3.4,15.5,5.3c3.7,1.4,7.3,3.2,10.9,5c28.5,14.4,57,28.8,85.6,43.1
			c14,7,28.1,13.8,42,20.9c19.8,9.9,40.4,17.5,61.6,23.9c16.7,5.1,33.7,9,51,11.7c11.2,1.7,22.5,2.8,33.9,3.3
			c11.1,0.5,22.1,0.4,33.2-0.3c18.5-1.2,36.7-4.1,54.7-8.8c19.9-5.1,39-12.1,57.4-21.2c0.8-0.4,1.6-0.7,2.4-1
			C611.1,107.6,611.1,119,611.1,130.3z"/>
    <path {{SVG_FILL_1_ID}} class="{{SVG_PATH_1_CLASS}} bklyn-section-separator-path-fill" d="M0,219C0,156.2,0,93.6,0,30.9c12.3-0.4,24.7,0.8,36.9,2.2C101.7,40.5,160,71.2,218,99
		c102.3,55,230.1,81.1,339.2,30.1c19.7-9.2,37.7-20.8,54.9-34.1c0,41.5,0,82.8,0,124.2C408,219,204,219,0,219z"/>    
</svg>