<svg width="14" height="4" viewBox="0 0 14 4" fill="none" xmlns="http://www.w3.org/2000/svg">
<path d="M14 3.26556C14 3.26556 12.9374 3.92746 11.8317 3.98404C10.5641 4.04915 10.2016 3.91196 9.43699 3.62829C8.53127 3.17177 6.72055 2.13395 6.15734 1.91616C5.59413 1.69837 4.5673 1.30696 3.27966 1.37361C1.83007 1.44724 0.56321 2.12 0 2.70131C0.297625 2.06294 0.707784 1.4937 1.20739 1.02561C1.72187 0.551265 2.53516 0.0242169 3.78268 0.00251494C4.58808 -0.0114363 5.59341 0.017242 6.62023 0.496235C7.64633 0.996929 8.3636 1.42632 8.73979 1.65884C9.66486 2.22541 9.67776 2.24634 10.3764 2.58892C10.9998 2.89352 11.4763 3.11132 12.415 3.2268C13.0549 3.30431 13.6023 3.33609 14 3.27021" fill="#201E1A"/>
</svg>
